<svg xmlns="http://www.w3.org/2000/svg" version="1.1" xmlns:xlink="http://www.w3.org/1999/xlink" xmlns:svgjs="http://svgjs.dev/svgjs" width="1440" height="250" preserveAspectRatio="none" viewBox="0 0 1440 250"><g mask="url(&quot;#SvgjsMask1011&quot;)" fill="none"><path d="M24 250L274 0L454 0L204 250z" fill="url(&quot;#SvgjsLinearGradient1012&quot;)"></path><path d="M248.60000000000002 250L498.6 0L788.1 0L538.1 250z" fill="url(&quot;#SvgjsLinearGradient1012&quot;)"></path><path d="M503.20000000000005 250L753.2 0L916.7 0L666.7 250z" fill="url(&quot;#SvgjsLinearGradient1012&quot;)"></path><path d="M730.8000000000001 250L980.8000000000001 0L1271.8000000000002 0L1021.8000000000001 250z" fill="url(&quot;#SvgjsLinearGradient1012&quot;)"></path><path d="M1437 250L1187 0L1025 0L1275 250z" fill="url(&quot;#SvgjsLinearGradient1013&quot;)"></path><path d="M1175.4 250L925.4000000000001 0L643.4000000000001 0L893.4000000000001 250z" fill="url(&quot;#SvgjsLinearGradient1013&quot;)"></path><path d="M945.8 250L695.8 0L601.3 0L851.3 250z" fill="url(&quot;#SvgjsLinearGradient1013&quot;)"></path><path d="M716.1999999999999 250L466.19999999999993 0L376.19999999999993 0L626.1999999999999 250z" fill="url(&quot;#SvgjsLinearGradient1013&quot;)"></path><path d="M1233.9759386658664 250L1440 43.975938665866266L1440 250z" fill="url(&quot;#SvgjsLinearGradient1012&quot;)"></path><path d="M0 250L206.02406133413373 250L 0 43.975938665866266z" fill="url(&quot;#SvgjsLinearGradient1013&quot;)"></path></g><defs><mask id="SvgjsMask1011"><rect width="1440" height="250" fill="#ffffff"></rect></mask><linearGradient x1="0%" y1="100%" x2="100%" y2="0%" id="SvgjsLinearGradient1012"><stop stop-color="rgba(0, 204, 255, 0.2)" offset="0"></stop><stop stop-opacity="0" stop-color="rgba(0, 204, 255, 0.2)" offset="0.66"></stop></linearGradient><linearGradient x1="100%" y1="100%" x2="0%" y2="0%" id="SvgjsLinearGradient1013"><stop stop-color="rgba(0, 204, 255, 0.2)" offset="0"></stop><stop stop-opacity="0" stop-color="rgba(0, 204, 255, 0.2)" offset="0.66"></stop></linearGradient></defs></svg>