<svg xmlns="http://www.w3.org/2000/svg" version="1.1" xmlns:xlink="http://www.w3.org/1999/xlink" xmlns:svgjs="http://svgjs.dev/svgjs" width="1440" height="560" preserveAspectRatio="none" viewBox="0 0 1440 560"><g mask="url(&quot;#SvgjsMask1332&quot;)" fill="none"><rect width="1440" height="560" x="0" y="0" fill="url(&quot;#SvgjsLinearGradient1333&quot;)"></rect><path d="M1440 0L1087.67 0L1440 116.4z" fill="rgba(255, 255, 255, .1)"></path><path d="M1087.67 0L1440 116.4L1440 310.8L818.2800000000001 0z" fill="rgba(255, 255, 255, .075)"></path><path d="M818.28 0L1440 310.8L1440 374.1L489.46 0z" fill="rgba(255, 255, 255, .05)"></path><path d="M489.46000000000004 0L1440 374.1L1440 413.31L229.29000000000002 0z" fill="rgba(255, 255, 255, .025)"></path><path d="M0 560L304.03 560L0 533.76z" fill="rgba(0, 0, 0, .1)"></path><path d="M0 533.76L304.03 560L801.3499999999999 560L0 396.44z" fill="rgba(0, 0, 0, .075)"></path><path d="M0 396.44L801.3499999999999 560L991.4099999999999 560L0 316.9z" fill="rgba(0, 0, 0, .05)"></path><path d="M0 316.9L991.4099999999999 560L1106.4199999999998 560L0 294.92999999999995z" fill="rgba(0, 0, 0, .025)"></path></g><defs><mask id="SvgjsMask1332"><rect width="1440" height="560" fill="#ffffff"></rect></mask><linearGradient x1="15.28%" y1="-39.29%" x2="84.72%" y2="139.29%" gradientUnits="userSpaceOnUse" id="SvgjsLinearGradient1333"><stop stop-color="#0e2a47" offset="0"></stop><stop stop-color="rgba(0, 1, 4, 0.85)" offset="1"></stop></linearGradient></defs></svg>