<svg xmlns="http://www.w3.org/2000/svg" version="1.1" xmlns:xlink="http://www.w3.org/1999/xlink" xmlns:svgjs="http://svgjs.dev/svgjs" width="1440" height="638" preserveAspectRatio="none" viewBox="0 0 1440 638"><g mask="url(&quot;#SvgjsMask1156&quot;)" fill="none"><path d="M-88.89 494.55L-88.89 494.55" stroke="rgba(0, 150, 136, 0.3)" stroke-width="1.5"></path><path d="M-88.89 494.55L60.68 559.52" stroke="rgba(0, 150, 136, 0.3)" stroke-width="1.5"></path><path d="M-88.89 494.55L-57.7 668.52" stroke="rgba(0, 150, 136, 0.3)" stroke-width="1.5"></path><path d="M-57.7 668.52L-57.7 668.52" stroke="rgba(0, 150, 136, 0.3)" stroke-width="1.5"></path><path d="M-57.7 668.52L53.31 705.33" stroke="rgba(0, 150, 136, 0.3)" stroke-width="1.5"></path><path d="M-57.7 668.52L-60.53 811.11" stroke="rgba(0, 150, 136, 0.3)" stroke-width="1.5"></path><path d="M-60.53 811.11L-60.53 811.11" stroke="rgba(0, 150, 136, 0.3)" stroke-width="1.5"></path><path d="M-60.53 811.11L86.77 811.51" stroke="rgba(0, 150, 136, 0.3)" stroke-width="1.5"></path><path d="M-60.53 811.11L53.31 705.33" stroke="rgba(0, 150, 136, 0.3)" stroke-width="1.5"></path><path d="M60.68 559.52L60.68 559.52" stroke="rgba(0, 150, 136, 0.3)" stroke-width="1.5"></path><path d="M60.68 559.52L53.31 705.33" stroke="rgba(0, 150, 136, 0.3)" stroke-width="1.5"></path><path d="M60.68 559.52L-57.7 668.52" stroke="rgba(0, 150, 136, 0.3)" stroke-width="1.5"></path><path d="M53.31 705.33L53.31 705.33" stroke="rgba(0, 150, 136, 0.3)" stroke-width="1.5"></path><path d="M53.31 705.33L86.77 811.51" stroke="rgba(0, 150, 136, 0.3)" stroke-width="1.5"></path><path d="M86.77 811.51L86.77 811.51" stroke="rgba(0, 150, 136, 0.3)" stroke-width="1.5"></path><path d="M238.93 557.41L238.93 557.41" stroke="rgba(0, 150, 136, 0.3)" stroke-width="1.5"></path><path d="M238.93 557.41L361.33 527.88" stroke="rgba(0, 150, 136, 0.3)" stroke-width="1.5"></path><path d="M238.93 557.41L220.31 686.48" stroke="rgba(0, 150, 136, 0.3)" stroke-width="1.5"></path><path d="M238.93 557.41L362.31 644.41" stroke="rgba(0, 150, 136, 0.3)" stroke-width="1.5"></path><path d="M238.93 557.41L60.68 559.52" stroke="rgba(0, 150, 136, 0.3)" stroke-width="1.5"></path><path d="M238.93 557.41L378 380.42" stroke="rgba(0, 150, 136, 0.3)" stroke-width="1.5"></path><path d="M238.93 557.41L53.31 705.33" stroke="rgba(0, 150, 136, 0.3)" stroke-width="1.5"></path><path d="M220.31 686.48L220.31 686.48" stroke="rgba(0, 150, 136, 0.3)" stroke-width="1.5"></path><path d="M220.31 686.48L362.31 644.41" stroke="rgba(0, 150, 136, 0.3)" stroke-width="1.5"></path><path d="M233.59 841.48L233.59 841.48" stroke="rgba(0, 150, 136, 0.3)" stroke-width="1.5"></path><path d="M233.59 841.48L342.5 827.3" stroke="rgba(0, 150, 136, 0.3)" stroke-width="1.5"></path><path d="M233.59 841.48L86.77 811.51" stroke="rgba(0, 150, 136, 0.3)" stroke-width="1.5"></path><path d="M233.59 841.48L220.31 686.48" stroke="rgba(0, 150, 136, 0.3)" stroke-width="1.5"></path><path d="M233.59 841.48L53.31 705.33" stroke="rgba(0, 150, 136, 0.3)" stroke-width="1.5"></path><path d="M233.59 841.48L362.31 644.41" stroke="rgba(0, 150, 136, 0.3)" stroke-width="1.5"></path><path d="M378 380.42L378 380.42" stroke="rgba(0, 150, 136, 0.3)" stroke-width="1.5"></path><path d="M378 380.42L507.43 397.41" stroke="rgba(0, 150, 136, 0.3)" stroke-width="1.5"></path><path d="M378 380.42L361.33 527.88" stroke="rgba(0, 150, 136, 0.3)" stroke-width="1.5"></path><path d="M361.33 527.88L361.33 527.88" stroke="rgba(0, 150, 136, 0.3)" stroke-width="1.5"></path><path d="M361.33 527.88L362.31 644.41" stroke="rgba(0, 150, 136, 0.3)" stroke-width="1.5"></path><path d="M362.31 644.41L362.31 644.41" stroke="rgba(0, 150, 136, 0.3)" stroke-width="1.5"></path><path d="M362.31 644.41L539.32 661.82" stroke="rgba(0, 150, 136, 0.3)" stroke-width="1.5"></path><path d="M362.31 644.41L342.5 827.3" stroke="rgba(0, 150, 136, 0.3)" stroke-width="1.5"></path><path d="M342.5 827.3L342.5 827.3" stroke="rgba(0, 150, 136, 0.3)" stroke-width="1.5"></path><path d="M342.5 827.3L220.31 686.48" stroke="rgba(0, 150, 136, 0.3)" stroke-width="1.5"></path><path d="M342.5 827.3L86.77 811.51" stroke="rgba(0, 150, 136, 0.3)" stroke-width="1.5"></path><path d="M342.5 827.3L539.32 661.82" stroke="rgba(0, 150, 136, 0.3)" stroke-width="1.5"></path><path d="M507.43 397.41L507.43 397.41" stroke="rgba(0, 150, 136, 0.3)" stroke-width="1.5"></path><path d="M507.43 397.41L642.25 369.14" stroke="rgba(0, 150, 136, 0.3)" stroke-width="1.5"></path><path d="M507.43 397.41L548.42 530.64" stroke="rgba(0, 150, 136, 0.3)" stroke-width="1.5"></path><path d="M507.43 397.41L361.33 527.88" stroke="rgba(0, 150, 136, 0.3)" stroke-width="1.5"></path><path d="M507.43 397.41L699.22 528.53" stroke="rgba(0, 150, 136, 0.3)" stroke-width="1.5"></path><path d="M548.42 530.64L548.42 530.64" stroke="rgba(0, 150, 136, 0.3)" stroke-width="1.5"></path><path d="M548.42 530.64L539.32 661.82" stroke="rgba(0, 150, 136, 0.3)" stroke-width="1.5"></path><path d="M539.32 661.82L539.32 661.82" stroke="rgba(0, 150, 136, 0.3)" stroke-width="1.5"></path><path d="M539.32 661.82L673.83 695.83" stroke="rgba(0, 150, 136, 0.3)" stroke-width="1.5"></path><path d="M539.32 661.82L653.69 830.75" stroke="rgba(0, 150, 136, 0.3)" stroke-width="1.5"></path><path d="M539.32 661.82L699.22 528.53" stroke="rgba(0, 150, 136, 0.3)" stroke-width="1.5"></path><path d="M709.22 222.7L709.22 222.7" stroke="rgba(0, 150, 136, 0.3)" stroke-width="1.5"></path><path d="M709.22 222.7L852.52 210.91" stroke="rgba(0, 150, 136, 0.3)" stroke-width="1.5"></path><path d="M709.22 222.7L642.25 369.14" stroke="rgba(0, 150, 136, 0.3)" stroke-width="1.5"></path><path d="M709.22 222.7L860.5 94.55" stroke="rgba(0, 150, 136, 0.3)" stroke-width="1.5"></path><path d="M709.22 222.7L810.34 403.22" stroke="rgba(0, 150, 136, 0.3)" stroke-width="1.5"></path><path d="M709.22 222.7L969.97 197.78" stroke="rgba(0, 150, 136, 0.3)" stroke-width="1.5"></path><path d="M709.22 222.7L945.48 107.12" stroke="rgba(0, 150, 136, 0.3)" stroke-width="1.5"></path><path d="M642.25 369.14L642.25 369.14" stroke="rgba(0, 150, 136, 0.3)" stroke-width="1.5"></path><path d="M642.25 369.14L699.22 528.53" stroke="rgba(0, 150, 136, 0.3)" stroke-width="1.5"></path><path d="M699.22 528.53L699.22 528.53" stroke="rgba(0, 150, 136, 0.3)" stroke-width="1.5"></path><path d="M699.22 528.53L843.93 497.03" stroke="rgba(0, 150, 136, 0.3)" stroke-width="1.5"></path><path d="M699.22 528.53L548.42 530.64" stroke="rgba(0, 150, 136, 0.3)" stroke-width="1.5"></path><path d="M673.83 695.83L673.83 695.83" stroke="rgba(0, 150, 136, 0.3)" stroke-width="1.5"></path><path d="M673.83 695.83L787.59 661.2" stroke="rgba(0, 150, 136, 0.3)" stroke-width="1.5"></path><path d="M673.83 695.83L653.69 830.75" stroke="rgba(0, 150, 136, 0.3)" stroke-width="1.5"></path><path d="M653.69 830.75L653.69 830.75" stroke="rgba(0, 150, 136, 0.3)" stroke-width="1.5"></path><path d="M653.69 830.75L839.85 847.9" stroke="rgba(0, 150, 136, 0.3)" stroke-width="1.5"></path><path d="M860.5 94.55L860.5 94.55" stroke="rgba(0, 150, 136, 0.3)" stroke-width="1.5"></path><path d="M860.5 94.55L945.48 107.12" stroke="rgba(0, 150, 136, 0.3)" stroke-width="1.5"></path><path d="M860.5 94.55L852.52 210.91" stroke="rgba(0, 150, 136, 0.3)" stroke-width="1.5"></path><path d="M852.52 210.91L852.52 210.91" stroke="rgba(0, 150, 136, 0.3)" stroke-width="1.5"></path><path d="M852.52 210.91L969.97 197.78" stroke="rgba(0, 150, 136, 0.3)" stroke-width="1.5"></path><path d="M852.52 210.91L945.48 107.12" stroke="rgba(0, 150, 136, 0.3)" stroke-width="1.5"></path><path d="M852.52 210.91L810.34 403.22" stroke="rgba(0, 150, 136, 0.3)" stroke-width="1.5"></path><path d="M852.52 210.91L961.23 411.75" stroke="rgba(0, 150, 136, 0.3)" stroke-width="1.5"></path><path d="M810.34 403.22L810.34 403.22" stroke="rgba(0, 150, 136, 0.3)" stroke-width="1.5"></path><path d="M810.34 403.22L843.93 497.03" stroke="rgba(0, 150, 136, 0.3)" stroke-width="1.5"></path><path d="M810.34 403.22L961.23 411.75" stroke="rgba(0, 150, 136, 0.3)" stroke-width="1.5"></path><path d="M843.93 497.03L843.93 497.03" stroke="rgba(0, 150, 136, 0.3)" stroke-width="1.5"></path><path d="M843.93 497.03L958.35 492.26" stroke="rgba(0, 150, 136, 0.3)" stroke-width="1.5"></path><path d="M843.93 497.03L961.23 411.75" stroke="rgba(0, 150, 136, 0.3)" stroke-width="1.5"></path><path d="M843.93 497.03L787.59 661.2" stroke="rgba(0, 150, 136, 0.3)" stroke-width="1.5"></path><path d="M843.93 497.03L943.47 676.01" stroke="rgba(0, 150, 136, 0.3)" stroke-width="1.5"></path><path d="M787.59 661.2L787.59 661.2" stroke="rgba(0, 150, 136, 0.3)" stroke-width="1.5"></path><path d="M787.59 661.2L943.47 676.01" stroke="rgba(0, 150, 136, 0.3)" stroke-width="1.5"></path><path d="M787.59 661.2L699.22 528.53" stroke="rgba(0, 150, 136, 0.3)" stroke-width="1.5"></path><path d="M787.59 661.2L839.85 847.9" stroke="rgba(0, 150, 136, 0.3)" stroke-width="1.5"></path><path d="M839.85 847.9L839.85 847.9" stroke="rgba(0, 150, 136, 0.3)" stroke-width="1.5"></path><path d="M839.85 847.9L972.89 812.41" stroke="rgba(0, 150, 136, 0.3)" stroke-width="1.5"></path><path d="M945.48 107.12L945.48 107.12" stroke="rgba(0, 150, 136, 0.3)" stroke-width="1.5"></path><path d="M945.48 107.12L969.97 197.78" stroke="rgba(0, 150, 136, 0.3)" stroke-width="1.5"></path><path d="M945.48 107.12L1147.49 50.15" stroke="rgba(0, 150, 136, 0.3)" stroke-width="1.5"></path><path d="M969.97 197.78L969.97 197.78" stroke="rgba(0, 150, 136, 0.3)" stroke-width="1.5"></path><path d="M969.97 197.78L860.5 94.55" stroke="rgba(0, 150, 136, 0.3)" stroke-width="1.5"></path><path d="M961.23 411.75L961.23 411.75" stroke="rgba(0, 150, 136, 0.3)" stroke-width="1.5"></path><path d="M961.23 411.75L958.35 492.26" stroke="rgba(0, 150, 136, 0.3)" stroke-width="1.5"></path><path d="M961.23 411.75L1123.98 366.94" stroke="rgba(0, 150, 136, 0.3)" stroke-width="1.5"></path><path d="M958.35 492.26L958.35 492.26" stroke="rgba(0, 150, 136, 0.3)" stroke-width="1.5"></path><path d="M958.35 492.26L810.34 403.22" stroke="rgba(0, 150, 136, 0.3)" stroke-width="1.5"></path><path d="M958.35 492.26L1137.78 506.06" stroke="rgba(0, 150, 136, 0.3)" stroke-width="1.5"></path><path d="M943.47 676.01L943.47 676.01" stroke="rgba(0, 150, 136, 0.3)" stroke-width="1.5"></path><path d="M943.47 676.01L972.89 812.41" stroke="rgba(0, 150, 136, 0.3)" stroke-width="1.5"></path><path d="M943.47 676.01L958.35 492.26" stroke="rgba(0, 150, 136, 0.3)" stroke-width="1.5"></path><path d="M943.47 676.01L839.85 847.9" stroke="rgba(0, 150, 136, 0.3)" stroke-width="1.5"></path><path d="M972.89 812.41L972.89 812.41" stroke="rgba(0, 150, 136, 0.3)" stroke-width="1.5"></path><path d="M972.89 812.41L1158.98 801.99" stroke="rgba(0, 150, 136, 0.3)" stroke-width="1.5"></path><path d="M1147.37 -107.66L1147.37 -107.66" stroke="rgba(0, 150, 136, 0.3)" stroke-width="1.5"></path><path d="M1147.37 -107.66L1147.49 50.15" stroke="rgba(0, 150, 136, 0.3)" stroke-width="1.5"></path><path d="M1147.37 -107.66L1308.34 -57.4" stroke="rgba(0, 150, 136, 0.3)" stroke-width="1.5"></path><path d="M1147.37 -107.66L1291.82 88.21" stroke="rgba(0, 150, 136, 0.3)" stroke-width="1.5"></path><path d="M1147.37 -107.66L1397.8 -51.37" stroke="rgba(0, 150, 136, 0.3)" stroke-width="1.5"></path><path d="M1147.49 50.15L1147.49 50.15" stroke="rgba(0, 150, 136, 0.3)" stroke-width="1.5"></path><path d="M1147.49 50.15L1291.82 88.21" stroke="rgba(0, 150, 136, 0.3)" stroke-width="1.5"></path><path d="M1147.49 50.15L1145.86 216.49" stroke="rgba(0, 150, 136, 0.3)" stroke-width="1.5"></path><path d="M1147.49 50.15L1308.34 -57.4" stroke="rgba(0, 150, 136, 0.3)" stroke-width="1.5"></path><path d="M1145.86 216.49L1145.86 216.49" stroke="rgba(0, 150, 136, 0.3)" stroke-width="1.5"></path><path d="M1145.86 216.49L1123.98 366.94" stroke="rgba(0, 150, 136, 0.3)" stroke-width="1.5"></path><path d="M1145.86 216.49L1309.59 242.26" stroke="rgba(0, 150, 136, 0.3)" stroke-width="1.5"></path><path d="M1145.86 216.49L969.97 197.78" stroke="rgba(0, 150, 136, 0.3)" stroke-width="1.5"></path><path d="M1123.98 366.94L1123.98 366.94" stroke="rgba(0, 150, 136, 0.3)" stroke-width="1.5"></path><path d="M1123.98 366.94L1250.08 400.97" stroke="rgba(0, 150, 136, 0.3)" stroke-width="1.5"></path><path d="M1123.98 366.94L1137.78 506.06" stroke="rgba(0, 150, 136, 0.3)" stroke-width="1.5"></path><path d="M1123.98 366.94L958.35 492.26" stroke="rgba(0, 150, 136, 0.3)" stroke-width="1.5"></path><path d="M1123.98 366.94L1265.43 519.82" stroke="rgba(0, 150, 136, 0.3)" stroke-width="1.5"></path><path d="M1137.78 506.06L1137.78 506.06" stroke="rgba(0, 150, 136, 0.3)" stroke-width="1.5"></path><path d="M1137.78 506.06L1265.43 519.82" stroke="rgba(0, 150, 136, 0.3)" stroke-width="1.5"></path><path d="M1137.78 506.06L1250.08 400.97" stroke="rgba(0, 150, 136, 0.3)" stroke-width="1.5"></path><path d="M1160 684.29L1160 684.29" stroke="rgba(0, 150, 136, 0.3)" stroke-width="1.5"></path><path d="M1160 684.29L1158.98 801.99" stroke="rgba(0, 150, 136, 0.3)" stroke-width="1.5"></path><path d="M1160 684.29L1301.33 686.78" stroke="rgba(0, 150, 136, 0.3)" stroke-width="1.5"></path><path d="M1160 684.29L1137.78 506.06" stroke="rgba(0, 150, 136, 0.3)" stroke-width="1.5"></path><path d="M1160 684.29L1309.82 797" stroke="rgba(0, 150, 136, 0.3)" stroke-width="1.5"></path><path d="M1158.98 801.99L1158.98 801.99" stroke="rgba(0, 150, 136, 0.3)" stroke-width="1.5"></path><path d="M1158.98 801.99L1309.82 797" stroke="rgba(0, 150, 136, 0.3)" stroke-width="1.5"></path><path d="M1158.98 801.99L1301.33 686.78" stroke="rgba(0, 150, 136, 0.3)" stroke-width="1.5"></path><path d="M1308.34 -57.4L1308.34 -57.4" stroke="rgba(0, 150, 136, 0.3)" stroke-width="1.5"></path><path d="M1308.34 -57.4L1397.8 -51.37" stroke="rgba(0, 150, 136, 0.3)" stroke-width="1.5"></path><path d="M1308.34 -57.4L1291.82 88.21" stroke="rgba(0, 150, 136, 0.3)" stroke-width="1.5"></path><path d="M1291.82 88.21L1291.82 88.21" stroke="rgba(0, 150, 136, 0.3)" stroke-width="1.5"></path><path d="M1291.82 88.21L1439.45 82.76" stroke="rgba(0, 150, 136, 0.3)" stroke-width="1.5"></path><path d="M1309.59 242.26L1309.59 242.26" stroke="rgba(0, 150, 136, 0.3)" stroke-width="1.5"></path><path d="M1309.59 242.26L1398.96 207.94" stroke="rgba(0, 150, 136, 0.3)" stroke-width="1.5"></path><path d="M1309.59 242.26L1291.82 88.21" stroke="rgba(0, 150, 136, 0.3)" stroke-width="1.5"></path><path d="M1309.59 242.26L1250.08 400.97" stroke="rgba(0, 150, 136, 0.3)" stroke-width="1.5"></path><path d="M1250.08 400.97L1250.08 400.97" stroke="rgba(0, 150, 136, 0.3)" stroke-width="1.5"></path><path d="M1250.08 400.97L1265.43 519.82" stroke="rgba(0, 150, 136, 0.3)" stroke-width="1.5"></path><path d="M1265.43 519.82L1265.43 519.82" stroke="rgba(0, 150, 136, 0.3)" stroke-width="1.5"></path><path d="M1265.43 519.82L1408.04 526.95" stroke="rgba(0, 150, 136, 0.3)" stroke-width="1.5"></path><path d="M1265.43 519.82L1301.33 686.78" stroke="rgba(0, 150, 136, 0.3)" stroke-width="1.5"></path><path d="M1265.43 519.82L1396.16 391.61" stroke="rgba(0, 150, 136, 0.3)" stroke-width="1.5"></path><path d="M1265.43 519.82L1160 684.29" stroke="rgba(0, 150, 136, 0.3)" stroke-width="1.5"></path><path d="M1301.33 686.78L1301.33 686.78" stroke="rgba(0, 150, 136, 0.3)" stroke-width="1.5"></path><path d="M1301.33 686.78L1309.82 797" stroke="rgba(0, 150, 136, 0.3)" stroke-width="1.5"></path><path d="M1309.82 797L1309.82 797" stroke="rgba(0, 150, 136, 0.3)" stroke-width="1.5"></path><path d="M1309.82 797L1446.78 832.55" stroke="rgba(0, 150, 136, 0.3)" stroke-width="1.5"></path><path d="M1309.82 797L1587.96 808.55" stroke="rgba(0, 150, 136, 0.3)" stroke-width="1.5"></path><path d="M1397.8 -51.37L1397.8 -51.37" stroke="rgba(0, 150, 136, 0.3)" stroke-width="1.5"></path><path d="M1397.8 -51.37L1439.45 82.76" stroke="rgba(0, 150, 136, 0.3)" stroke-width="1.5"></path><path d="M1397.8 -51.37L1291.82 88.21" stroke="rgba(0, 150, 136, 0.3)" stroke-width="1.5"></path><path d="M1439.45 82.76L1439.45 82.76" stroke="rgba(0, 150, 136, 0.3)" stroke-width="1.5"></path><path d="M1439.45 82.76L1568.62 106.59" stroke="rgba(0, 150, 136, 0.3)" stroke-width="1.5"></path><path d="M1439.45 82.76L1398.96 207.94" stroke="rgba(0, 150, 136, 0.3)" stroke-width="1.5"></path><path d="M1398.96 207.94L1398.96 207.94" stroke="rgba(0, 150, 136, 0.3)" stroke-width="1.5"></path><path d="M1398.96 207.94L1291.82 88.21" stroke="rgba(0, 150, 136, 0.3)" stroke-width="1.5"></path><path d="M1398.96 207.94L1396.16 391.61" stroke="rgba(0, 150, 136, 0.3)" stroke-width="1.5"></path><path d="M1398.96 207.94L1595.87 222.11" stroke="rgba(0, 150, 136, 0.3)" stroke-width="1.5"></path><path d="M1396.16 391.61L1396.16 391.61" stroke="rgba(0, 150, 136, 0.3)" stroke-width="1.5"></path><path d="M1396.16 391.61L1408.04 526.95" stroke="rgba(0, 150, 136, 0.3)" stroke-width="1.5"></path><path d="M1396.16 391.61L1250.08 400.97" stroke="rgba(0, 150, 136, 0.3)" stroke-width="1.5"></path><path d="M1396.16 391.61L1309.59 242.26" stroke="rgba(0, 150, 136, 0.3)" stroke-width="1.5"></path><path d="M1396.16 391.61L1607.91 358.49" stroke="rgba(0, 150, 136, 0.3)" stroke-width="1.5"></path><path d="M1408.04 526.95L1408.04 526.95" stroke="rgba(0, 150, 136, 0.3)" stroke-width="1.5"></path><path d="M1446.78 832.55L1446.78 832.55" stroke="rgba(0, 150, 136, 0.3)" stroke-width="1.5"></path><path d="M1446.78 832.55L1587.96 808.55" stroke="rgba(0, 150, 136, 0.3)" stroke-width="1.5"></path><path d="M1446.78 832.55L1301.33 686.78" stroke="rgba(0, 150, 136, 0.3)" stroke-width="1.5"></path><path d="M1446.78 832.55L1563.32 660.27" stroke="rgba(0, 150, 136, 0.3)" stroke-width="1.5"></path><path d="M1446.78 832.55L1158.98 801.99" stroke="rgba(0, 150, 136, 0.3)" stroke-width="1.5"></path><path d="M1601.64 -86.1L1601.64 -86.1" stroke="rgba(0, 150, 136, 0.3)" stroke-width="1.5"></path><path d="M1601.64 -86.1L1568.62 106.59" stroke="rgba(0, 150, 136, 0.3)" stroke-width="1.5"></path><path d="M1601.64 -86.1L1397.8 -51.37" stroke="rgba(0, 150, 136, 0.3)" stroke-width="1.5"></path><path d="M1568.62 106.59L1568.62 106.59" stroke="rgba(0, 150, 136, 0.3)" stroke-width="1.5"></path><path d="M1568.62 106.59L1595.87 222.11" stroke="rgba(0, 150, 136, 0.3)" stroke-width="1.5"></path><path d="M1595.87 222.11L1595.87 222.11" stroke="rgba(0, 150, 136, 0.3)" stroke-width="1.5"></path><path d="M1595.87 222.11L1607.91 358.49" stroke="rgba(0, 150, 136, 0.3)" stroke-width="1.5"></path><path d="M1595.87 222.11L1439.45 82.76" stroke="rgba(0, 150, 136, 0.3)" stroke-width="1.5"></path><path d="M1595.87 222.11L1396.16 391.61" stroke="rgba(0, 150, 136, 0.3)" stroke-width="1.5"></path><path d="M1595.87 222.11L1309.59 242.26" stroke="rgba(0, 150, 136, 0.3)" stroke-width="1.5"></path><path d="M1607.91 358.49L1607.91 358.49" stroke="rgba(0, 150, 136, 0.3)" stroke-width="1.5"></path><path d="M1607.91 358.49L1568.62 106.59" stroke="rgba(0, 150, 136, 0.3)" stroke-width="1.5"></path><path d="M1563.32 660.27L1563.32 660.27" stroke="rgba(0, 150, 136, 0.3)" stroke-width="1.5"></path><path d="M1563.32 660.27L1587.96 808.55" stroke="rgba(0, 150, 136, 0.3)" stroke-width="1.5"></path><path d="M1563.32 660.27L1408.04 526.95" stroke="rgba(0, 150, 136, 0.3)" stroke-width="1.5"></path><path d="M1587.96 808.55L1587.96 808.55" stroke="rgba(0, 150, 136, 0.3)" stroke-width="1.5"></path><path d="M1587.96 808.55L1301.33 686.78" stroke="rgba(0, 150, 136, 0.3)" stroke-width="1.5"></path><circle r="5" cx="-88.89" cy="494.55" fill="rgba(0, 150, 136, 0.3)"></circle><circle r="5" cx="-57.7" cy="668.52" fill="rgba(0, 150, 136, 0.3)"></circle><circle r="5" cx="-60.53" cy="811.11" fill="rgba(0, 150, 136, 0.3)"></circle><circle r="5" cx="60.68" cy="559.52" fill="rgba(0, 150, 136, 0.3)"></circle><circle r="5" cx="53.31" cy="705.33" fill="rgba(0, 150, 136, 0.3)"></circle><circle r="5" cx="86.77" cy="811.51" fill="rgba(0, 150, 136, 0.3)"></circle><circle r="5" cx="238.93" cy="557.41" fill="rgba(0, 150, 136, 0.3)"></circle><circle r="5" cx="220.31" cy="686.48" fill="rgba(0, 150, 136, 0.3)"></circle><circle r="5" cx="233.59" cy="841.48" fill="rgba(0, 150, 136, 0.3)"></circle><circle r="5" cx="378" cy="380.42" fill="rgba(0, 150, 136, 0.3)"></circle><circle r="5" cx="361.33" cy="527.88" fill="rgba(0, 150, 136, 0.3)"></circle><circle r="5" cx="362.31" cy="644.41" fill="rgba(0, 150, 136, 0.3)"></circle><circle r="5" cx="342.5" cy="827.3" fill="rgba(0, 150, 136, 0.3)"></circle><circle r="5" cx="507.43" cy="397.41" fill="rgba(0, 150, 136, 0.3)"></circle><circle r="5" cx="548.42" cy="530.64" fill="rgba(0, 150, 136, 0.3)"></circle><circle r="5" cx="539.32" cy="661.82" fill="rgba(0, 150, 136, 0.3)"></circle><circle r="5" cx="709.22" cy="222.7" fill="rgba(0, 150, 136, 0.3)"></circle><circle r="5" cx="642.25" cy="369.14" fill="rgba(0, 150, 136, 0.3)"></circle><circle r="5" cx="699.22" cy="528.53" fill="rgba(0, 150, 136, 0.3)"></circle><circle r="5" cx="673.83" cy="695.83" fill="rgba(0, 150, 136, 0.3)"></circle><circle r="5" cx="653.69" cy="830.75" fill="rgba(0, 150, 136, 0.3)"></circle><circle r="5" cx="860.5" cy="94.55" fill="rgba(0, 150, 136, 0.3)"></circle><circle r="5" cx="852.52" cy="210.91" fill="rgba(0, 150, 136, 0.3)"></circle><circle r="5" cx="810.34" cy="403.22" fill="rgba(0, 150, 136, 0.3)"></circle><circle r="5" cx="843.93" cy="497.03" fill="rgba(0, 150, 136, 0.3)"></circle><circle r="5" cx="787.59" cy="661.2" fill="rgba(0, 150, 136, 0.3)"></circle><circle r="5" cx="839.85" cy="847.9" fill="rgba(0, 150, 136, 0.3)"></circle><circle r="5" cx="945.48" cy="107.12" fill="rgba(0, 150, 136, 0.3)"></circle><circle r="5" cx="969.97" cy="197.78" fill="rgba(0, 150, 136, 0.3)"></circle><circle r="5" cx="961.23" cy="411.75" fill="rgba(0, 150, 136, 0.3)"></circle><circle r="5" cx="958.35" cy="492.26" fill="rgba(0, 150, 136, 0.3)"></circle><circle r="5" cx="943.47" cy="676.01" fill="rgba(0, 150, 136, 0.3)"></circle><circle r="5" cx="972.89" cy="812.41" fill="rgba(0, 150, 136, 0.3)"></circle><circle r="5" cx="1147.37" cy="-107.66" fill="rgba(0, 150, 136, 0.3)"></circle><circle r="5" cx="1147.49" cy="50.15" fill="rgba(0, 150, 136, 0.3)"></circle><circle r="5" cx="1145.86" cy="216.49" fill="rgba(0, 150, 136, 0.3)"></circle><circle r="5" cx="1123.98" cy="366.94" fill="rgba(0, 150, 136, 0.3)"></circle><circle r="5" cx="1137.78" cy="506.06" fill="rgba(0, 150, 136, 0.3)"></circle><circle r="5" cx="1160" cy="684.29" fill="rgba(0, 150, 136, 0.3)"></circle><circle r="5" cx="1158.98" cy="801.99" fill="rgba(0, 150, 136, 0.3)"></circle><circle r="5" cx="1308.34" cy="-57.4" fill="rgba(0, 150, 136, 0.3)"></circle><circle r="5" cx="1291.82" cy="88.21" fill="rgba(0, 150, 136, 0.3)"></circle><circle r="5" cx="1309.59" cy="242.26" fill="rgba(0, 150, 136, 0.3)"></circle><circle r="5" cx="1250.08" cy="400.97" fill="rgba(0, 150, 136, 0.3)"></circle><circle r="5" cx="1265.43" cy="519.82" fill="rgba(0, 150, 136, 0.3)"></circle><circle r="5" cx="1301.33" cy="686.78" fill="rgba(0, 150, 136, 0.3)"></circle><circle r="5" cx="1309.82" cy="797" fill="rgba(0, 150, 136, 0.3)"></circle><circle r="5" cx="1397.8" cy="-51.37" fill="rgba(0, 150, 136, 0.3)"></circle><circle r="5" cx="1439.45" cy="82.76" fill="rgba(0, 150, 136, 0.3)"></circle><circle r="5" cx="1398.96" cy="207.94" fill="rgba(0, 150, 136, 0.3)"></circle><circle r="5" cx="1396.16" cy="391.61" fill="rgba(0, 150, 136, 0.3)"></circle><circle r="5" cx="1408.04" cy="526.95" fill="rgba(0, 150, 136, 0.3)"></circle><circle r="5" cx="1446.78" cy="832.55" fill="rgba(0, 150, 136, 0.3)"></circle><circle r="5" cx="1601.64" cy="-86.1" fill="rgba(0, 150, 136, 0.3)"></circle><circle r="5" cx="1568.62" cy="106.59" fill="rgba(0, 150, 136, 0.3)"></circle><circle r="5" cx="1595.87" cy="222.11" fill="rgba(0, 150, 136, 0.3)"></circle><circle r="5" cx="1607.91" cy="358.49" fill="rgba(0, 150, 136, 0.3)"></circle><circle r="5" cx="1563.32" cy="660.27" fill="rgba(0, 150, 136, 0.3)"></circle><circle r="5" cx="1587.96" cy="808.55" fill="rgba(0, 150, 136, 0.3)"></circle><path d="M-101.03 559.72L-101.03 559.72" stroke="rgba(0, 150, 136, 0.5)" stroke-width="1.5"></path><path d="M-101.03 559.72L-90.75 662.27" stroke="rgba(0, 150, 136, 0.5)" stroke-width="1.5"></path><path d="M-101.03 559.72L94.7 559.64" stroke="rgba(0, 150, 136, 0.5)" stroke-width="1.5"></path><path d="M-90.75 662.27L-90.75 662.27" stroke="rgba(0, 150, 136, 0.5)" stroke-width="1.5"></path><path d="M-90.75 662.27L-106.05 797.44" stroke="rgba(0, 150, 136, 0.5)" stroke-width="1.5"></path><path d="M-90.75 662.27L73.46 653.24" stroke="rgba(0, 150, 136, 0.5)" stroke-width="1.5"></path><path d="M-90.75 662.27L94.7 559.64" stroke="rgba(0, 150, 136, 0.5)" stroke-width="1.5"></path><path d="M-90.75 662.27L98.48 817.85" stroke="rgba(0, 150, 136, 0.5)" stroke-width="1.5"></path><path d="M-90.75 662.27L209.56 674.04" stroke="rgba(0, 150, 136, 0.5)" stroke-width="1.5"></path><path d="M94.7 559.64L94.7 559.64" stroke="rgba(0, 150, 136, 0.5)" stroke-width="1.5"></path><path d="M94.7 559.64L73.46 653.24" stroke="rgba(0, 150, 136, 0.5)" stroke-width="1.5"></path><path d="M94.7 559.64L209.56 674.04" stroke="rgba(0, 150, 136, 0.5)" stroke-width="1.5"></path><path d="M209.56 674.04L209.56 674.04" stroke="rgba(0, 150, 136, 0.5)" stroke-width="1.5"></path><path d="M209.56 674.04L73.46 653.24" stroke="rgba(0, 150, 136, 0.5)" stroke-width="1.5"></path><path d="M209.56 674.04L348.52 668.22" stroke="rgba(0, 150, 136, 0.5)" stroke-width="1.5"></path><path d="M209.56 674.04L189.13 828.74" stroke="rgba(0, 150, 136, 0.5)" stroke-width="1.5"></path><path d="M209.56 674.04L98.48 817.85" stroke="rgba(0, 150, 136, 0.5)" stroke-width="1.5"></path><path d="M349.61 807.05L349.61 807.05" stroke="rgba(0, 150, 136, 0.5)" stroke-width="1.5"></path><path d="M349.61 807.05L348.52 668.22" stroke="rgba(0, 150, 136, 0.5)" stroke-width="1.5"></path><path d="M349.61 807.05L189.13 828.74" stroke="rgba(0, 150, 136, 0.5)" stroke-width="1.5"></path><path d="M349.61 807.05L523.86 810.64" stroke="rgba(0, 150, 136, 0.5)" stroke-width="1.5"></path><path d="M688.33 801.62L688.33 801.62" stroke="rgba(0, 150, 136, 0.5)" stroke-width="1.5"></path><path d="M688.33 801.62L788.89 813.96" stroke="rgba(0, 150, 136, 0.5)" stroke-width="1.5"></path><path d="M688.33 801.62L654.83 704.5" stroke="rgba(0, 150, 136, 0.5)" stroke-width="1.5"></path><path d="M688.33 801.62L523.86 810.64" stroke="rgba(0, 150, 136, 0.5)" stroke-width="1.5"></path><path d="M688.33 801.62L826.88 687.75" stroke="rgba(0, 150, 136, 0.5)" stroke-width="1.5"></path><path d="M688.33 801.62L507.52 690.65" stroke="rgba(0, 150, 136, 0.5)" stroke-width="1.5"></path><path d="M688.33 801.62L643.82 508.09" stroke="rgba(0, 150, 136, 0.5)" stroke-width="1.5"></path><path d="M985.28 669.69L985.28 669.69" stroke="rgba(0, 150, 136, 0.5)" stroke-width="1.5"></path><path d="M985.28 669.69L961.04 555.17" stroke="rgba(0, 150, 136, 0.5)" stroke-width="1.5"></path><path d="M985.28 669.69L999.49 807.85" stroke="rgba(0, 150, 136, 0.5)" stroke-width="1.5"></path><path d="M985.28 669.69L826.88 687.75" stroke="rgba(0, 150, 136, 0.5)" stroke-width="1.5"></path><path d="M1148.94 648.21L1148.94 648.21" stroke="rgba(0, 150, 136, 0.5)" stroke-width="1.5"></path><path d="M1148.94 648.21L1282.43 712.23" stroke="rgba(0, 150, 136, 0.5)" stroke-width="1.5"></path><path d="M1148.94 648.21L985.28 669.69" stroke="rgba(0, 150, 136, 0.5)" stroke-width="1.5"></path><path d="M1148.94 648.21L1097.22 849.54" stroke="rgba(0, 150, 136, 0.5)" stroke-width="1.5"></path><path d="M1148.94 648.21L961.04 555.17" stroke="rgba(0, 150, 136, 0.5)" stroke-width="1.5"></path><path d="M1148.94 648.21L1274.97 817.97" stroke="rgba(0, 150, 136, 0.5)" stroke-width="1.5"></path><path d="M1148.94 648.21L999.49 807.85" stroke="rgba(0, 150, 136, 0.5)" stroke-width="1.5"></path><path d="M1097.22 849.54L1097.22 849.54" stroke="rgba(0, 150, 136, 0.5)" stroke-width="1.5"></path><path d="M1097.22 849.54L999.49 807.85" stroke="rgba(0, 150, 136, 0.5)" stroke-width="1.5"></path><path d="M1097.22 849.54L1274.97 817.97" stroke="rgba(0, 150, 136, 0.5)" stroke-width="1.5"></path><path d="M1282.43 712.23L1282.43 712.23" stroke="rgba(0, 150, 136, 0.5)" stroke-width="1.5"></path><path d="M1282.43 712.23L1274.97 817.97" stroke="rgba(0, 150, 136, 0.5)" stroke-width="1.5"></path><path d="M1282.43 712.23L1433.33 662.15" stroke="rgba(0, 150, 136, 0.5)" stroke-width="1.5"></path><path d="M1274.97 817.97L1274.97 817.97" stroke="rgba(0, 150, 136, 0.5)" stroke-width="1.5"></path><path d="M1274.97 817.97L1399.53 849.33" stroke="rgba(0, 150, 136, 0.5)" stroke-width="1.5"></path><path d="M-106.05 797.44L-106.05 797.44" stroke="rgba(0, 150, 136, 0.5)" stroke-width="1.5"></path><path d="M-106.05 797.44L98.48 817.85" stroke="rgba(0, 150, 136, 0.5)" stroke-width="1.5"></path><path d="M-106.05 797.44L73.46 653.24" stroke="rgba(0, 150, 136, 0.5)" stroke-width="1.5"></path><path d="M-106.05 797.44L-101.03 559.72" stroke="rgba(0, 150, 136, 0.5)" stroke-width="1.5"></path><path d="M-106.05 797.44L189.13 828.74" stroke="rgba(0, 150, 136, 0.5)" stroke-width="1.5"></path><path d="M73.46 653.24L73.46 653.24" stroke="rgba(0, 150, 136, 0.5)" stroke-width="1.5"></path><path d="M73.46 653.24L98.48 817.85" stroke="rgba(0, 150, 136, 0.5)" stroke-width="1.5"></path><path d="M98.48 817.85L98.48 817.85" stroke="rgba(0, 150, 136, 0.5)" stroke-width="1.5"></path><path d="M98.48 817.85L189.13 828.74" stroke="rgba(0, 150, 136, 0.5)" stroke-width="1.5"></path><path d="M189.13 828.74L189.13 828.74" stroke="rgba(0, 150, 136, 0.5)" stroke-width="1.5"></path><path d="M400.49 504.83L400.49 504.83" stroke="rgba(0, 150, 136, 0.5)" stroke-width="1.5"></path><path d="M400.49 504.83L533.18 524.59" stroke="rgba(0, 150, 136, 0.5)" stroke-width="1.5"></path><path d="M400.49 504.83L348.52 668.22" stroke="rgba(0, 150, 136, 0.5)" stroke-width="1.5"></path><path d="M400.49 504.83L507.52 690.65" stroke="rgba(0, 150, 136, 0.5)" stroke-width="1.5"></path><path d="M400.49 504.83L643.82 508.09" stroke="rgba(0, 150, 136, 0.5)" stroke-width="1.5"></path><path d="M348.52 668.22L348.52 668.22" stroke="rgba(0, 150, 136, 0.5)" stroke-width="1.5"></path><path d="M533.18 524.59L533.18 524.59" stroke="rgba(0, 150, 136, 0.5)" stroke-width="1.5"></path><path d="M533.18 524.59L643.82 508.09" stroke="rgba(0, 150, 136, 0.5)" stroke-width="1.5"></path><path d="M533.18 524.59L507.52 690.65" stroke="rgba(0, 150, 136, 0.5)" stroke-width="1.5"></path><path d="M533.18 524.59L654.83 704.5" stroke="rgba(0, 150, 136, 0.5)" stroke-width="1.5"></path><path d="M533.18 524.59L348.52 668.22" stroke="rgba(0, 150, 136, 0.5)" stroke-width="1.5"></path><path d="M507.52 690.65L507.52 690.65" stroke="rgba(0, 150, 136, 0.5)" stroke-width="1.5"></path><path d="M507.52 690.65L523.86 810.64" stroke="rgba(0, 150, 136, 0.5)" stroke-width="1.5"></path><path d="M507.52 690.65L654.83 704.5" stroke="rgba(0, 150, 136, 0.5)" stroke-width="1.5"></path><path d="M507.52 690.65L348.52 668.22" stroke="rgba(0, 150, 136, 0.5)" stroke-width="1.5"></path><path d="M507.52 690.65L349.61 807.05" stroke="rgba(0, 150, 136, 0.5)" stroke-width="1.5"></path><path d="M523.86 810.64L523.86 810.64" stroke="rgba(0, 150, 136, 0.5)" stroke-width="1.5"></path><path d="M523.86 810.64L654.83 704.5" stroke="rgba(0, 150, 136, 0.5)" stroke-width="1.5"></path><path d="M523.86 810.64L348.52 668.22" stroke="rgba(0, 150, 136, 0.5)" stroke-width="1.5"></path><path d="M523.86 810.64L788.89 813.96" stroke="rgba(0, 150, 136, 0.5)" stroke-width="1.5"></path><path d="M643.82 508.09L643.82 508.09" stroke="rgba(0, 150, 136, 0.5)" stroke-width="1.5"></path><path d="M643.82 508.09L834.21 510.17" stroke="rgba(0, 150, 136, 0.5)" stroke-width="1.5"></path><path d="M643.82 508.09L654.83 704.5" stroke="rgba(0, 150, 136, 0.5)" stroke-width="1.5"></path><path d="M643.82 508.09L814.07 364.89" stroke="rgba(0, 150, 136, 0.5)" stroke-width="1.5"></path><path d="M654.83 704.5L654.83 704.5" stroke="rgba(0, 150, 136, 0.5)" stroke-width="1.5"></path><path d="M654.83 704.5L826.88 687.75" stroke="rgba(0, 150, 136, 0.5)" stroke-width="1.5"></path><path d="M654.83 704.5L788.89 813.96" stroke="rgba(0, 150, 136, 0.5)" stroke-width="1.5"></path><path d="M814.07 364.89L814.07 364.89" stroke="rgba(0, 150, 136, 0.5)" stroke-width="1.5"></path><path d="M814.07 364.89L941.63 347.85" stroke="rgba(0, 150, 136, 0.5)" stroke-width="1.5"></path><path d="M814.07 364.89L834.21 510.17" stroke="rgba(0, 150, 136, 0.5)" stroke-width="1.5"></path><path d="M814.07 364.89L961.04 555.17" stroke="rgba(0, 150, 136, 0.5)" stroke-width="1.5"></path><path d="M834.21 510.17L834.21 510.17" stroke="rgba(0, 150, 136, 0.5)" stroke-width="1.5"></path><path d="M834.21 510.17L961.04 555.17" stroke="rgba(0, 150, 136, 0.5)" stroke-width="1.5"></path><path d="M834.21 510.17L826.88 687.75" stroke="rgba(0, 150, 136, 0.5)" stroke-width="1.5"></path><path d="M826.88 687.75L826.88 687.75" stroke="rgba(0, 150, 136, 0.5)" stroke-width="1.5"></path><path d="M826.88 687.75L788.89 813.96" stroke="rgba(0, 150, 136, 0.5)" stroke-width="1.5"></path><path d="M788.89 813.96L788.89 813.96" stroke="rgba(0, 150, 136, 0.5)" stroke-width="1.5"></path><path d="M788.89 813.96L999.49 807.85" stroke="rgba(0, 150, 136, 0.5)" stroke-width="1.5"></path><path d="M788.89 813.96L985.28 669.69" stroke="rgba(0, 150, 136, 0.5)" stroke-width="1.5"></path><path d="M941.63 347.85L941.63 347.85" stroke="rgba(0, 150, 136, 0.5)" stroke-width="1.5"></path><path d="M941.63 347.85L834.21 510.17" stroke="rgba(0, 150, 136, 0.5)" stroke-width="1.5"></path><path d="M941.63 347.85L961.04 555.17" stroke="rgba(0, 150, 136, 0.5)" stroke-width="1.5"></path><path d="M941.63 347.85L1149.63 385.61" stroke="rgba(0, 150, 136, 0.5)" stroke-width="1.5"></path><path d="M941.63 347.85L1153.4 192.34" stroke="rgba(0, 150, 136, 0.5)" stroke-width="1.5"></path><path d="M941.63 347.85L1250.55 252.31" stroke="rgba(0, 150, 136, 0.5)" stroke-width="1.5"></path><path d="M961.04 555.17L961.04 555.17" stroke="rgba(0, 150, 136, 0.5)" stroke-width="1.5"></path><path d="M961.04 555.17L826.88 687.75" stroke="rgba(0, 150, 136, 0.5)" stroke-width="1.5"></path><path d="M999.49 807.85L999.49 807.85" stroke="rgba(0, 150, 136, 0.5)" stroke-width="1.5"></path><path d="M999.49 807.85L826.88 687.75" stroke="rgba(0, 150, 136, 0.5)" stroke-width="1.5"></path><path d="M1153.4 192.34L1153.4 192.34" stroke="rgba(0, 150, 136, 0.5)" stroke-width="1.5"></path><path d="M1153.4 192.34L1250.55 252.31" stroke="rgba(0, 150, 136, 0.5)" stroke-width="1.5"></path><path d="M1153.4 192.34L1244.87 112.17" stroke="rgba(0, 150, 136, 0.5)" stroke-width="1.5"></path><path d="M1153.4 192.34L1149.63 385.61" stroke="rgba(0, 150, 136, 0.5)" stroke-width="1.5"></path><path d="M1153.4 192.34L1288.25 366.54" stroke="rgba(0, 150, 136, 0.5)" stroke-width="1.5"></path><path d="M1149.63 385.61L1149.63 385.61" stroke="rgba(0, 150, 136, 0.5)" stroke-width="1.5"></path><path d="M1149.63 385.61L1288.25 366.54" stroke="rgba(0, 150, 136, 0.5)" stroke-width="1.5"></path><path d="M1149.63 385.61L1250.55 252.31" stroke="rgba(0, 150, 136, 0.5)" stroke-width="1.5"></path><path d="M1149.63 385.61L961.04 555.17" stroke="rgba(0, 150, 136, 0.5)" stroke-width="1.5"></path><path d="M1149.63 385.61L1148.94 648.21" stroke="rgba(0, 150, 136, 0.5)" stroke-width="1.5"></path><path d="M1261 -74.33L1261 -74.33" stroke="rgba(0, 150, 136, 0.5)" stroke-width="1.5"></path><path d="M1261 -74.33L1442.17 -37.72" stroke="rgba(0, 150, 136, 0.5)" stroke-width="1.5"></path><path d="M1261 -74.33L1244.87 112.17" stroke="rgba(0, 150, 136, 0.5)" stroke-width="1.5"></path><path d="M1261 -74.33L1434.79 95.33" stroke="rgba(0, 150, 136, 0.5)" stroke-width="1.5"></path><path d="M1261 -74.33L1153.4 192.34" stroke="rgba(0, 150, 136, 0.5)" stroke-width="1.5"></path><path d="M1261 -74.33L1443.3 196.72" stroke="rgba(0, 150, 136, 0.5)" stroke-width="1.5"></path><path d="M1261 -74.33L1250.55 252.31" stroke="rgba(0, 150, 136, 0.5)" stroke-width="1.5"></path><path d="M1244.87 112.17L1244.87 112.17" stroke="rgba(0, 150, 136, 0.5)" stroke-width="1.5"></path><path d="M1244.87 112.17L1250.55 252.31" stroke="rgba(0, 150, 136, 0.5)" stroke-width="1.5"></path><path d="M1244.87 112.17L1434.79 95.33" stroke="rgba(0, 150, 136, 0.5)" stroke-width="1.5"></path><path d="M1250.55 252.31L1250.55 252.31" stroke="rgba(0, 150, 136, 0.5)" stroke-width="1.5"></path><path d="M1250.55 252.31L1288.25 366.54" stroke="rgba(0, 150, 136, 0.5)" stroke-width="1.5"></path><path d="M1288.25 366.54L1288.25 366.54" stroke="rgba(0, 150, 136, 0.5)" stroke-width="1.5"></path><path d="M1288.25 366.54L1451.61 344.75" stroke="rgba(0, 150, 136, 0.5)" stroke-width="1.5"></path><path d="M1288.25 366.54L1388.11 525.32" stroke="rgba(0, 150, 136, 0.5)" stroke-width="1.5"></path><path d="M1442.17 -37.72L1442.17 -37.72" stroke="rgba(0, 150, 136, 0.5)" stroke-width="1.5"></path><path d="M1442.17 -37.72L1434.79 95.33" stroke="rgba(0, 150, 136, 0.5)" stroke-width="1.5"></path><path d="M1442.17 -37.72L1595.31 -50.44" stroke="rgba(0, 150, 136, 0.5)" stroke-width="1.5"></path><path d="M1442.17 -37.72L1577.98 83.13" stroke="rgba(0, 150, 136, 0.5)" stroke-width="1.5"></path><path d="M1442.17 -37.72L1443.3 196.72" stroke="rgba(0, 150, 136, 0.5)" stroke-width="1.5"></path><path d="M1434.79 95.33L1434.79 95.33" stroke="rgba(0, 150, 136, 0.5)" stroke-width="1.5"></path><path d="M1434.79 95.33L1443.3 196.72" stroke="rgba(0, 150, 136, 0.5)" stroke-width="1.5"></path><path d="M1434.79 95.33L1577.98 83.13" stroke="rgba(0, 150, 136, 0.5)" stroke-width="1.5"></path><path d="M1434.79 95.33L1539.88 223.51" stroke="rgba(0, 150, 136, 0.5)" stroke-width="1.5"></path><path d="M1434.79 95.33L1595.31 -50.44" stroke="rgba(0, 150, 136, 0.5)" stroke-width="1.5"></path><path d="M1443.3 196.72L1443.3 196.72" stroke="rgba(0, 150, 136, 0.5)" stroke-width="1.5"></path><path d="M1443.3 196.72L1539.88 223.51" stroke="rgba(0, 150, 136, 0.5)" stroke-width="1.5"></path><path d="M1443.3 196.72L1451.61 344.75" stroke="rgba(0, 150, 136, 0.5)" stroke-width="1.5"></path><path d="M1443.3 196.72L1577.98 83.13" stroke="rgba(0, 150, 136, 0.5)" stroke-width="1.5"></path><path d="M1443.3 196.72L1250.55 252.31" stroke="rgba(0, 150, 136, 0.5)" stroke-width="1.5"></path><path d="M1443.3 196.72L1244.87 112.17" stroke="rgba(0, 150, 136, 0.5)" stroke-width="1.5"></path><path d="M1451.61 344.75L1451.61 344.75" stroke="rgba(0, 150, 136, 0.5)" stroke-width="1.5"></path><path d="M1451.61 344.75L1539.88 223.51" stroke="rgba(0, 150, 136, 0.5)" stroke-width="1.5"></path><path d="M1451.61 344.75L1607.84 370.98" stroke="rgba(0, 150, 136, 0.5)" stroke-width="1.5"></path><path d="M1388.11 525.32L1388.11 525.32" stroke="rgba(0, 150, 136, 0.5)" stroke-width="1.5"></path><path d="M1388.11 525.32L1433.33 662.15" stroke="rgba(0, 150, 136, 0.5)" stroke-width="1.5"></path><path d="M1433.33 662.15L1433.33 662.15" stroke="rgba(0, 150, 136, 0.5)" stroke-width="1.5"></path><path d="M1433.33 662.15L1585.51 696.74" stroke="rgba(0, 150, 136, 0.5)" stroke-width="1.5"></path><path d="M1433.33 662.15L1566.44 546.4" stroke="rgba(0, 150, 136, 0.5)" stroke-width="1.5"></path><path d="M1433.33 662.15L1399.53 849.33" stroke="rgba(0, 150, 136, 0.5)" stroke-width="1.5"></path><path d="M1433.33 662.15L1274.97 817.97" stroke="rgba(0, 150, 136, 0.5)" stroke-width="1.5"></path><path d="M1399.53 849.33L1399.53 849.33" stroke="rgba(0, 150, 136, 0.5)" stroke-width="1.5"></path><path d="M1399.53 849.33L1282.43 712.23" stroke="rgba(0, 150, 136, 0.5)" stroke-width="1.5"></path><path d="M1399.53 849.33L1586.9 827.33" stroke="rgba(0, 150, 136, 0.5)" stroke-width="1.5"></path><path d="M1399.53 849.33L1585.51 696.74" stroke="rgba(0, 150, 136, 0.5)" stroke-width="1.5"></path><path d="M1595.31 -50.44L1595.31 -50.44" stroke="rgba(0, 150, 136, 0.5)" stroke-width="1.5"></path><path d="M1595.31 -50.44L1577.98 83.13" stroke="rgba(0, 150, 136, 0.5)" stroke-width="1.5"></path><path d="M1577.98 83.13L1577.98 83.13" stroke="rgba(0, 150, 136, 0.5)" stroke-width="1.5"></path><path d="M1577.98 83.13L1539.88 223.51" stroke="rgba(0, 150, 136, 0.5)" stroke-width="1.5"></path><path d="M1577.98 83.13L1607.84 370.98" stroke="rgba(0, 150, 136, 0.5)" stroke-width="1.5"></path><path d="M1539.88 223.51L1539.88 223.51" stroke="rgba(0, 150, 136, 0.5)" stroke-width="1.5"></path><path d="M1607.84 370.98L1607.84 370.98" stroke="rgba(0, 150, 136, 0.5)" stroke-width="1.5"></path><path d="M1607.84 370.98L1539.88 223.51" stroke="rgba(0, 150, 136, 0.5)" stroke-width="1.5"></path><path d="M1607.84 370.98L1566.44 546.4" stroke="rgba(0, 150, 136, 0.5)" stroke-width="1.5"></path><path d="M1607.84 370.98L1443.3 196.72" stroke="rgba(0, 150, 136, 0.5)" stroke-width="1.5"></path><path d="M1607.84 370.98L1388.11 525.32" stroke="rgba(0, 150, 136, 0.5)" stroke-width="1.5"></path><path d="M1566.44 546.4L1566.44 546.4" stroke="rgba(0, 150, 136, 0.5)" stroke-width="1.5"></path><path d="M1566.44 546.4L1585.51 696.74" stroke="rgba(0, 150, 136, 0.5)" stroke-width="1.5"></path><path d="M1585.51 696.74L1585.51 696.74" stroke="rgba(0, 150, 136, 0.5)" stroke-width="1.5"></path><path d="M1585.51 696.74L1586.9 827.33" stroke="rgba(0, 150, 136, 0.5)" stroke-width="1.5"></path><path d="M1585.51 696.74L1388.11 525.32" stroke="rgba(0, 150, 136, 0.5)" stroke-width="1.5"></path><path d="M1585.51 696.74L1282.43 712.23" stroke="rgba(0, 150, 136, 0.5)" stroke-width="1.5"></path><path d="M1586.9 827.33L1586.9 827.33" stroke="rgba(0, 150, 136, 0.5)" stroke-width="1.5"></path><path d="M1586.9 827.33L1433.33 662.15" stroke="rgba(0, 150, 136, 0.5)" stroke-width="1.5"></path><circle r="25" cx="-101.03" cy="559.72" fill="url(&quot;#SvgjsRadialGradient1157&quot;)"></circle><circle r="25" cx="-90.75" cy="662.27" fill="url(&quot;#SvgjsRadialGradient1157&quot;)"></circle><circle r="25" cx="94.7" cy="559.64" fill="url(&quot;#SvgjsRadialGradient1157&quot;)"></circle><circle r="25" cx="209.56" cy="674.04" fill="url(&quot;#SvgjsRadialGradient1157&quot;)"></circle><circle r="25" cx="349.61" cy="807.05" fill="url(&quot;#SvgjsRadialGradient1157&quot;)"></circle><circle r="25" cx="688.33" cy="801.62" fill="url(&quot;#SvgjsRadialGradient1157&quot;)"></circle><circle r="25" cx="985.28" cy="669.69" fill="url(&quot;#SvgjsRadialGradient1157&quot;)"></circle><circle r="25" cx="1148.94" cy="648.21" fill="url(&quot;#SvgjsRadialGradient1157&quot;)"></circle><circle r="25" cx="1097.22" cy="849.54" fill="url(&quot;#SvgjsRadialGradient1157&quot;)"></circle><circle r="25" cx="1282.43" cy="712.23" fill="url(&quot;#SvgjsRadialGradient1157&quot;)"></circle><circle r="25" cx="1274.97" cy="817.97" fill="url(&quot;#SvgjsRadialGradient1157&quot;)"></circle><circle r="5" cx="-106.05" cy="797.44" fill="#f78686"></circle><circle r="5" cx="73.46" cy="653.24" fill="#f78686"></circle><circle r="5" cx="98.48" cy="817.85" fill="#f78686"></circle><circle r="5" cx="189.13" cy="828.74" fill="#f78686"></circle><circle r="5" cx="400.49" cy="504.83" fill="#f78686"></circle><circle r="5" cx="348.52" cy="668.22" fill="#f78686"></circle><circle r="5" cx="533.18" cy="524.59" fill="#f78686"></circle><circle r="5" cx="507.52" cy="690.65" fill="#f78686"></circle><circle r="5" cx="523.86" cy="810.64" fill="#f78686"></circle><circle r="5" cx="643.82" cy="508.09" fill="#f78686"></circle><circle r="5" cx="654.83" cy="704.5" fill="#f78686"></circle><circle r="5" cx="814.07" cy="364.89" fill="#f78686"></circle><circle r="5" cx="834.21" cy="510.17" fill="#f78686"></circle><circle r="5" cx="826.88" cy="687.75" fill="#f78686"></circle><circle r="5" cx="788.89" cy="813.96" fill="#f78686"></circle><circle r="5" cx="941.63" cy="347.85" fill="#f78686"></circle><circle r="5" cx="961.04" cy="555.17" fill="#f78686"></circle><circle r="5" cx="999.49" cy="807.85" fill="#f78686"></circle><circle r="5" cx="1153.4" cy="192.34" fill="#f78686"></circle><circle r="5" cx="1149.63" cy="385.61" fill="#f78686"></circle><circle r="5" cx="1261" cy="-74.33" fill="#f78686"></circle><circle r="5" cx="1244.87" cy="112.17" fill="#f78686"></circle><circle r="5" cx="1250.55" cy="252.31" fill="#f78686"></circle><circle r="5" cx="1288.25" cy="366.54" fill="#f78686"></circle><circle r="5" cx="1442.17" cy="-37.72" fill="#f78686"></circle><circle r="5" cx="1434.79" cy="95.33" fill="#f78686"></circle><circle r="5" cx="1443.3" cy="196.72" fill="#f78686"></circle><circle r="5" cx="1451.61" cy="344.75" fill="#f78686"></circle><circle r="5" cx="1388.11" cy="525.32" fill="#f78686"></circle><circle r="5" cx="1433.33" cy="662.15" fill="#f78686"></circle><circle r="5" cx="1399.53" cy="849.33" fill="#f78686"></circle><circle r="5" cx="1595.31" cy="-50.44" fill="#f78686"></circle><circle r="5" cx="1577.98" cy="83.13" fill="#f78686"></circle><circle r="5" cx="1539.88" cy="223.51" fill="#f78686"></circle><circle r="5" cx="1607.84" cy="370.98" fill="#f78686"></circle><circle r="5" cx="1566.44" cy="546.4" fill="#f78686"></circle><circle r="5" cx="1585.51" cy="696.74" fill="#f78686"></circle><circle r="5" cx="1586.9" cy="827.33" fill="#f78686"></circle></g><defs><mask id="SvgjsMask1156"><rect width="1440" height="638" fill="#ffffff"></rect></mask><radialGradient id="SvgjsRadialGradient1157"><stop stop-color="#ffffff" offset="0.1"></stop><stop stop-color="rgba(238, 12, 12, 1)" offset="0.2"></stop><stop stop-color="rgba(238, 12, 12, 0)" offset="1"></stop></radialGradient></defs></svg>