<svg xmlns="http://www.w3.org/2000/svg" version="1.1" xmlns:xlink="http://www.w3.org/1999/xlink" xmlns:svgjs="http://svgjs.dev/svgjs" width="1440" height="560" preserveAspectRatio="none" viewBox="0 0 1440 560"><g mask="url(&quot;#SvgjsMask1006&quot;)" fill="none"><path d="M-55.56 375.97L-55.56 375.97" stroke="rgba(0, 150, 136, 0.3)" stroke-width="1.5"></path><path d="M-55.56 375.97L86.67 368.34" stroke="rgba(0, 150, 136, 0.3)" stroke-width="1.5"></path><path d="M-55.56 375.97L-89.82 522.6" stroke="rgba(0, 150, 136, 0.3)" stroke-width="1.5"></path><path d="M-55.56 375.97L85.19 498.38" stroke="rgba(0, 150, 136, 0.3)" stroke-width="1.5"></path><path d="M-89.82 522.6L-89.82 522.6" stroke="rgba(0, 150, 136, 0.3)" stroke-width="1.5"></path><path d="M-89.82 522.6L-60.22 650.59" stroke="rgba(0, 150, 136, 0.3)" stroke-width="1.5"></path><path d="M-89.82 522.6L85.19 498.38" stroke="rgba(0, 150, 136, 0.3)" stroke-width="1.5"></path><path d="M-60.22 650.59L-60.22 650.59" stroke="rgba(0, 150, 136, 0.3)" stroke-width="1.5"></path><path d="M-60.22 650.59L71.4 689.52" stroke="rgba(0, 150, 136, 0.3)" stroke-width="1.5"></path><path d="M-60.22 650.59L85.19 498.38" stroke="rgba(0, 150, 136, 0.3)" stroke-width="1.5"></path><path d="M-60.22 650.59L-55.56 375.97" stroke="rgba(0, 150, 136, 0.3)" stroke-width="1.5"></path><path d="M86.67 368.34L86.67 368.34" stroke="rgba(0, 150, 136, 0.3)" stroke-width="1.5"></path><path d="M86.67 368.34L192.31 342.74" stroke="rgba(0, 150, 136, 0.3)" stroke-width="1.5"></path><path d="M86.67 368.34L85.19 498.38" stroke="rgba(0, 150, 136, 0.3)" stroke-width="1.5"></path><path d="M86.67 368.34L214.56 531.9" stroke="rgba(0, 150, 136, 0.3)" stroke-width="1.5"></path><path d="M86.67 368.34L-89.82 522.6" stroke="rgba(0, 150, 136, 0.3)" stroke-width="1.5"></path><path d="M85.19 498.38L85.19 498.38" stroke="rgba(0, 150, 136, 0.3)" stroke-width="1.5"></path><path d="M85.19 498.38L214.56 531.9" stroke="rgba(0, 150, 136, 0.3)" stroke-width="1.5"></path><path d="M71.4 689.52L71.4 689.52" stroke="rgba(0, 150, 136, 0.3)" stroke-width="1.5"></path><path d="M71.4 689.52L85.19 498.38" stroke="rgba(0, 150, 136, 0.3)" stroke-width="1.5"></path><path d="M192.31 342.74L192.31 342.74" stroke="rgba(0, 150, 136, 0.3)" stroke-width="1.5"></path><path d="M192.31 342.74L347 354.69" stroke="rgba(0, 150, 136, 0.3)" stroke-width="1.5"></path><path d="M192.31 342.74L85.19 498.38" stroke="rgba(0, 150, 136, 0.3)" stroke-width="1.5"></path><path d="M192.31 342.74L214.56 531.9" stroke="rgba(0, 150, 136, 0.3)" stroke-width="1.5"></path><path d="M192.31 342.74L-55.56 375.97" stroke="rgba(0, 150, 136, 0.3)" stroke-width="1.5"></path><path d="M214.56 531.9L214.56 531.9" stroke="rgba(0, 150, 136, 0.3)" stroke-width="1.5"></path><path d="M214.56 531.9L398.13 528.88" stroke="rgba(0, 150, 136, 0.3)" stroke-width="1.5"></path><path d="M214.56 531.9L352.11 653.76" stroke="rgba(0, 150, 136, 0.3)" stroke-width="1.5"></path><path d="M214.56 531.9L71.4 689.52" stroke="rgba(0, 150, 136, 0.3)" stroke-width="1.5"></path><path d="M347 354.69L347 354.69" stroke="rgba(0, 150, 136, 0.3)" stroke-width="1.5"></path><path d="M347 354.69L509.39 381.37" stroke="rgba(0, 150, 136, 0.3)" stroke-width="1.5"></path><path d="M347 354.69L398.13 528.88" stroke="rgba(0, 150, 136, 0.3)" stroke-width="1.5"></path><path d="M398.13 528.88L398.13 528.88" stroke="rgba(0, 150, 136, 0.3)" stroke-width="1.5"></path><path d="M398.13 528.88L503.86 518.85" stroke="rgba(0, 150, 136, 0.3)" stroke-width="1.5"></path><path d="M398.13 528.88L352.11 653.76" stroke="rgba(0, 150, 136, 0.3)" stroke-width="1.5"></path><path d="M398.13 528.88L509.39 381.37" stroke="rgba(0, 150, 136, 0.3)" stroke-width="1.5"></path><path d="M352.11 653.76L352.11 653.76" stroke="rgba(0, 150, 136, 0.3)" stroke-width="1.5"></path><path d="M352.11 653.76L541.06 678.3" stroke="rgba(0, 150, 136, 0.3)" stroke-width="1.5"></path><path d="M352.11 653.76L503.86 518.85" stroke="rgba(0, 150, 136, 0.3)" stroke-width="1.5"></path><path d="M352.11 653.76L71.4 689.52" stroke="rgba(0, 150, 136, 0.3)" stroke-width="1.5"></path><path d="M352.11 653.76L347 354.69" stroke="rgba(0, 150, 136, 0.3)" stroke-width="1.5"></path><path d="M509.39 381.37L509.39 381.37" stroke="rgba(0, 150, 136, 0.3)" stroke-width="1.5"></path><path d="M509.39 381.37L503.86 518.85" stroke="rgba(0, 150, 136, 0.3)" stroke-width="1.5"></path><path d="M509.39 381.37L654.84 396.06" stroke="rgba(0, 150, 136, 0.3)" stroke-width="1.5"></path><path d="M503.86 518.85L503.86 518.85" stroke="rgba(0, 150, 136, 0.3)" stroke-width="1.5"></path><path d="M503.86 518.85L541.06 678.3" stroke="rgba(0, 150, 136, 0.3)" stroke-width="1.5"></path><path d="M541.06 678.3L541.06 678.3" stroke="rgba(0, 150, 136, 0.3)" stroke-width="1.5"></path><path d="M541.06 678.3L671.62 649.67" stroke="rgba(0, 150, 136, 0.3)" stroke-width="1.5"></path><path d="M541.06 678.3L669.21 548.62" stroke="rgba(0, 150, 136, 0.3)" stroke-width="1.5"></path><path d="M654.84 396.06L654.84 396.06" stroke="rgba(0, 150, 136, 0.3)" stroke-width="1.5"></path><path d="M654.84 396.06L669.21 548.62" stroke="rgba(0, 150, 136, 0.3)" stroke-width="1.5"></path><path d="M654.84 396.06L503.86 518.85" stroke="rgba(0, 150, 136, 0.3)" stroke-width="1.5"></path><path d="M654.84 396.06L797.25 224.84" stroke="rgba(0, 150, 136, 0.3)" stroke-width="1.5"></path><path d="M669.21 548.62L669.21 548.62" stroke="rgba(0, 150, 136, 0.3)" stroke-width="1.5"></path><path d="M669.21 548.62L671.62 649.67" stroke="rgba(0, 150, 136, 0.3)" stroke-width="1.5"></path><path d="M669.21 548.62L819.16 557.78" stroke="rgba(0, 150, 136, 0.3)" stroke-width="1.5"></path><path d="M671.62 649.67L671.62 649.67" stroke="rgba(0, 150, 136, 0.3)" stroke-width="1.5"></path><path d="M671.62 649.67L819.16 557.78" stroke="rgba(0, 150, 136, 0.3)" stroke-width="1.5"></path><path d="M671.62 649.67L847.95 703.76" stroke="rgba(0, 150, 136, 0.3)" stroke-width="1.5"></path><path d="M671.62 649.67L503.86 518.85" stroke="rgba(0, 150, 136, 0.3)" stroke-width="1.5"></path><path d="M671.62 649.67L654.84 396.06" stroke="rgba(0, 150, 136, 0.3)" stroke-width="1.5"></path><path d="M797.25 224.84L797.25 224.84" stroke="rgba(0, 150, 136, 0.3)" stroke-width="1.5"></path><path d="M797.25 224.84L990.57 200.2" stroke="rgba(0, 150, 136, 0.3)" stroke-width="1.5"></path><path d="M797.25 224.84L960.53 402.79" stroke="rgba(0, 150, 136, 0.3)" stroke-width="1.5"></path><path d="M797.25 224.84L1003.52 42.09" stroke="rgba(0, 150, 136, 0.3)" stroke-width="1.5"></path><path d="M819.16 557.78L819.16 557.78" stroke="rgba(0, 150, 136, 0.3)" stroke-width="1.5"></path><path d="M819.16 557.78L954.62 521.58" stroke="rgba(0, 150, 136, 0.3)" stroke-width="1.5"></path><path d="M819.16 557.78L847.95 703.76" stroke="rgba(0, 150, 136, 0.3)" stroke-width="1.5"></path><path d="M819.16 557.78L968.99 683.1" stroke="rgba(0, 150, 136, 0.3)" stroke-width="1.5"></path><path d="M819.16 557.78L960.53 402.79" stroke="rgba(0, 150, 136, 0.3)" stroke-width="1.5"></path><path d="M847.95 703.76L847.95 703.76" stroke="rgba(0, 150, 136, 0.3)" stroke-width="1.5"></path><path d="M847.95 703.76L968.99 683.1" stroke="rgba(0, 150, 136, 0.3)" stroke-width="1.5"></path><path d="M1011.01 -65.92L1011.01 -65.92" stroke="rgba(0, 150, 136, 0.3)" stroke-width="1.5"></path><path d="M1011.01 -65.92L1003.52 42.09" stroke="rgba(0, 150, 136, 0.3)" stroke-width="1.5"></path><path d="M1011.01 -65.92L1131.14 -55.07" stroke="rgba(0, 150, 136, 0.3)" stroke-width="1.5"></path><path d="M1011.01 -65.92L1088.12 37.59" stroke="rgba(0, 150, 136, 0.3)" stroke-width="1.5"></path><path d="M1003.52 42.09L1003.52 42.09" stroke="rgba(0, 150, 136, 0.3)" stroke-width="1.5"></path><path d="M1003.52 42.09L1088.12 37.59" stroke="rgba(0, 150, 136, 0.3)" stroke-width="1.5"></path><path d="M1003.52 42.09L990.57 200.2" stroke="rgba(0, 150, 136, 0.3)" stroke-width="1.5"></path><path d="M1003.52 42.09L1131.14 -55.07" stroke="rgba(0, 150, 136, 0.3)" stroke-width="1.5"></path><path d="M990.57 200.2L990.57 200.2" stroke="rgba(0, 150, 136, 0.3)" stroke-width="1.5"></path><path d="M990.57 200.2L1135.66 229.88" stroke="rgba(0, 150, 136, 0.3)" stroke-width="1.5"></path><path d="M990.57 200.2L1088.12 37.59" stroke="rgba(0, 150, 136, 0.3)" stroke-width="1.5"></path><path d="M990.57 200.2L1110.9 352.47" stroke="rgba(0, 150, 136, 0.3)" stroke-width="1.5"></path><path d="M960.53 402.79L960.53 402.79" stroke="rgba(0, 150, 136, 0.3)" stroke-width="1.5"></path><path d="M960.53 402.79L954.62 521.58" stroke="rgba(0, 150, 136, 0.3)" stroke-width="1.5"></path><path d="M960.53 402.79L1110.9 352.47" stroke="rgba(0, 150, 136, 0.3)" stroke-width="1.5"></path><path d="M960.53 402.79L990.57 200.2" stroke="rgba(0, 150, 136, 0.3)" stroke-width="1.5"></path><path d="M954.62 521.58L954.62 521.58" stroke="rgba(0, 150, 136, 0.3)" stroke-width="1.5"></path><path d="M954.62 521.58L968.99 683.1" stroke="rgba(0, 150, 136, 0.3)" stroke-width="1.5"></path><path d="M954.62 521.58L1138.72 560.21" stroke="rgba(0, 150, 136, 0.3)" stroke-width="1.5"></path><path d="M968.99 683.1L968.99 683.1" stroke="rgba(0, 150, 136, 0.3)" stroke-width="1.5"></path><path d="M968.99 683.1L1123 688.29" stroke="rgba(0, 150, 136, 0.3)" stroke-width="1.5"></path><path d="M1131.14 -55.07L1131.14 -55.07" stroke="rgba(0, 150, 136, 0.3)" stroke-width="1.5"></path><path d="M1131.14 -55.07L1088.12 37.59" stroke="rgba(0, 150, 136, 0.3)" stroke-width="1.5"></path><path d="M1088.12 37.59L1088.12 37.59" stroke="rgba(0, 150, 136, 0.3)" stroke-width="1.5"></path><path d="M1088.12 37.59L1237.89 81" stroke="rgba(0, 150, 136, 0.3)" stroke-width="1.5"></path><path d="M1088.12 37.59L1135.66 229.88" stroke="rgba(0, 150, 136, 0.3)" stroke-width="1.5"></path><path d="M1135.66 229.88L1135.66 229.88" stroke="rgba(0, 150, 136, 0.3)" stroke-width="1.5"></path><path d="M1135.66 229.88L1110.9 352.47" stroke="rgba(0, 150, 136, 0.3)" stroke-width="1.5"></path><path d="M1135.66 229.88L1270.58 192.86" stroke="rgba(0, 150, 136, 0.3)" stroke-width="1.5"></path><path d="M1135.66 229.88L1256.74 363.01" stroke="rgba(0, 150, 136, 0.3)" stroke-width="1.5"></path><path d="M1135.66 229.88L1237.89 81" stroke="rgba(0, 150, 136, 0.3)" stroke-width="1.5"></path><path d="M1110.9 352.47L1110.9 352.47" stroke="rgba(0, 150, 136, 0.3)" stroke-width="1.5"></path><path d="M1110.9 352.47L1256.74 363.01" stroke="rgba(0, 150, 136, 0.3)" stroke-width="1.5"></path><path d="M1138.72 560.21L1138.72 560.21" stroke="rgba(0, 150, 136, 0.3)" stroke-width="1.5"></path><path d="M1138.72 560.21L1250.03 537.88" stroke="rgba(0, 150, 136, 0.3)" stroke-width="1.5"></path><path d="M1138.72 560.21L1123 688.29" stroke="rgba(0, 150, 136, 0.3)" stroke-width="1.5"></path><path d="M1138.72 560.21L1273.75 677.9" stroke="rgba(0, 150, 136, 0.3)" stroke-width="1.5"></path><path d="M1138.72 560.21L968.99 683.1" stroke="rgba(0, 150, 136, 0.3)" stroke-width="1.5"></path><path d="M1138.72 560.21L1110.9 352.47" stroke="rgba(0, 150, 136, 0.3)" stroke-width="1.5"></path><path d="M1123 688.29L1123 688.29" stroke="rgba(0, 150, 136, 0.3)" stroke-width="1.5"></path><path d="M1123 688.29L1273.75 677.9" stroke="rgba(0, 150, 136, 0.3)" stroke-width="1.5"></path><path d="M1237.89 81L1237.89 81" stroke="rgba(0, 150, 136, 0.3)" stroke-width="1.5"></path><path d="M1237.89 81L1270.58 192.86" stroke="rgba(0, 150, 136, 0.3)" stroke-width="1.5"></path><path d="M1270.58 192.86L1270.58 192.86" stroke="rgba(0, 150, 136, 0.3)" stroke-width="1.5"></path><path d="M1270.58 192.86L1256.74 363.01" stroke="rgba(0, 150, 136, 0.3)" stroke-width="1.5"></path><path d="M1270.58 192.86L1454.6 188.08" stroke="rgba(0, 150, 136, 0.3)" stroke-width="1.5"></path><path d="M1256.74 363.01L1256.74 363.01" stroke="rgba(0, 150, 136, 0.3)" stroke-width="1.5"></path><path d="M1256.74 363.01L1250.03 537.88" stroke="rgba(0, 150, 136, 0.3)" stroke-width="1.5"></path><path d="M1256.74 363.01L1450.89 356.36" stroke="rgba(0, 150, 136, 0.3)" stroke-width="1.5"></path><path d="M1256.74 363.01L1418.14 490.55" stroke="rgba(0, 150, 136, 0.3)" stroke-width="1.5"></path><path d="M1250.03 537.88L1250.03 537.88" stroke="rgba(0, 150, 136, 0.3)" stroke-width="1.5"></path><path d="M1250.03 537.88L1273.75 677.9" stroke="rgba(0, 150, 136, 0.3)" stroke-width="1.5"></path><path d="M1250.03 537.88L1418.14 490.55" stroke="rgba(0, 150, 136, 0.3)" stroke-width="1.5"></path><path d="M1273.75 677.9L1273.75 677.9" stroke="rgba(0, 150, 136, 0.3)" stroke-width="1.5"></path><path d="M1273.75 677.9L1426.05 652.62" stroke="rgba(0, 150, 136, 0.3)" stroke-width="1.5"></path><path d="M1273.75 677.9L1418.14 490.55" stroke="rgba(0, 150, 136, 0.3)" stroke-width="1.5"></path><path d="M1273.75 677.9L1563.31 703.66" stroke="rgba(0, 150, 136, 0.3)" stroke-width="1.5"></path><path d="M1394.87 -73.63L1394.87 -73.63" stroke="rgba(0, 150, 136, 0.3)" stroke-width="1.5"></path><path d="M1394.87 -73.63L1412.23 62.49" stroke="rgba(0, 150, 136, 0.3)" stroke-width="1.5"></path><path d="M1394.87 -73.63L1587.47 -59.28" stroke="rgba(0, 150, 136, 0.3)" stroke-width="1.5"></path><path d="M1394.87 -73.63L1576.54 45.18" stroke="rgba(0, 150, 136, 0.3)" stroke-width="1.5"></path><path d="M1394.87 -73.63L1237.89 81" stroke="rgba(0, 150, 136, 0.3)" stroke-width="1.5"></path><path d="M1394.87 -73.63L1131.14 -55.07" stroke="rgba(0, 150, 136, 0.3)" stroke-width="1.5"></path><path d="M1394.87 -73.63L1454.6 188.08" stroke="rgba(0, 150, 136, 0.3)" stroke-width="1.5"></path><path d="M1412.23 62.49L1412.23 62.49" stroke="rgba(0, 150, 136, 0.3)" stroke-width="1.5"></path><path d="M1412.23 62.49L1454.6 188.08" stroke="rgba(0, 150, 136, 0.3)" stroke-width="1.5"></path><path d="M1454.6 188.08L1454.6 188.08" stroke="rgba(0, 150, 136, 0.3)" stroke-width="1.5"></path><path d="M1454.6 188.08L1549.53 259.46" stroke="rgba(0, 150, 136, 0.3)" stroke-width="1.5"></path><path d="M1450.89 356.36L1450.89 356.36" stroke="rgba(0, 150, 136, 0.3)" stroke-width="1.5"></path><path d="M1450.89 356.36L1541.88 410.31" stroke="rgba(0, 150, 136, 0.3)" stroke-width="1.5"></path><path d="M1450.89 356.36L1418.14 490.55" stroke="rgba(0, 150, 136, 0.3)" stroke-width="1.5"></path><path d="M1450.89 356.36L1549.53 259.46" stroke="rgba(0, 150, 136, 0.3)" stroke-width="1.5"></path><path d="M1418.14 490.55L1418.14 490.55" stroke="rgba(0, 150, 136, 0.3)" stroke-width="1.5"></path><path d="M1418.14 490.55L1541.88 410.31" stroke="rgba(0, 150, 136, 0.3)" stroke-width="1.5"></path><path d="M1418.14 490.55L1426.05 652.62" stroke="rgba(0, 150, 136, 0.3)" stroke-width="1.5"></path><path d="M1418.14 490.55L1610.09 491.43" stroke="rgba(0, 150, 136, 0.3)" stroke-width="1.5"></path><path d="M1426.05 652.62L1426.05 652.62" stroke="rgba(0, 150, 136, 0.3)" stroke-width="1.5"></path><path d="M1426.05 652.62L1563.31 703.66" stroke="rgba(0, 150, 136, 0.3)" stroke-width="1.5"></path><path d="M1426.05 652.62L1250.03 537.88" stroke="rgba(0, 150, 136, 0.3)" stroke-width="1.5"></path><path d="M1426.05 652.62L1610.09 491.43" stroke="rgba(0, 150, 136, 0.3)" stroke-width="1.5"></path><path d="M1587.47 -59.28L1587.47 -59.28" stroke="rgba(0, 150, 136, 0.3)" stroke-width="1.5"></path><path d="M1587.47 -59.28L1576.54 45.18" stroke="rgba(0, 150, 136, 0.3)" stroke-width="1.5"></path><path d="M1587.47 -59.28L1412.23 62.49" stroke="rgba(0, 150, 136, 0.3)" stroke-width="1.5"></path><path d="M1587.47 -59.28L1454.6 188.08" stroke="rgba(0, 150, 136, 0.3)" stroke-width="1.5"></path><path d="M1587.47 -59.28L1549.53 259.46" stroke="rgba(0, 150, 136, 0.3)" stroke-width="1.5"></path><path d="M1587.47 -59.28L1237.89 81" stroke="rgba(0, 150, 136, 0.3)" stroke-width="1.5"></path><path d="M1576.54 45.18L1576.54 45.18" stroke="rgba(0, 150, 136, 0.3)" stroke-width="1.5"></path><path d="M1576.54 45.18L1412.23 62.49" stroke="rgba(0, 150, 136, 0.3)" stroke-width="1.5"></path><path d="M1576.54 45.18L1454.6 188.08" stroke="rgba(0, 150, 136, 0.3)" stroke-width="1.5"></path><path d="M1576.54 45.18L1549.53 259.46" stroke="rgba(0, 150, 136, 0.3)" stroke-width="1.5"></path><path d="M1576.54 45.18L1450.89 356.36" stroke="rgba(0, 150, 136, 0.3)" stroke-width="1.5"></path><path d="M1549.53 259.46L1549.53 259.46" stroke="rgba(0, 150, 136, 0.3)" stroke-width="1.5"></path><path d="M1541.88 410.31L1541.88 410.31" stroke="rgba(0, 150, 136, 0.3)" stroke-width="1.5"></path><path d="M1541.88 410.31L1610.09 491.43" stroke="rgba(0, 150, 136, 0.3)" stroke-width="1.5"></path><path d="M1541.88 410.31L1549.53 259.46" stroke="rgba(0, 150, 136, 0.3)" stroke-width="1.5"></path><path d="M1541.88 410.31L1454.6 188.08" stroke="rgba(0, 150, 136, 0.3)" stroke-width="1.5"></path><path d="M1541.88 410.31L1426.05 652.62" stroke="rgba(0, 150, 136, 0.3)" stroke-width="1.5"></path><path d="M1610.09 491.43L1610.09 491.43" stroke="rgba(0, 150, 136, 0.3)" stroke-width="1.5"></path><path d="M1610.09 491.43L1450.89 356.36" stroke="rgba(0, 150, 136, 0.3)" stroke-width="1.5"></path><path d="M1610.09 491.43L1563.31 703.66" stroke="rgba(0, 150, 136, 0.3)" stroke-width="1.5"></path><path d="M1610.09 491.43L1549.53 259.46" stroke="rgba(0, 150, 136, 0.3)" stroke-width="1.5"></path><path d="M1563.31 703.66L1563.31 703.66" stroke="rgba(0, 150, 136, 0.3)" stroke-width="1.5"></path><path d="M1563.31 703.66L1418.14 490.55" stroke="rgba(0, 150, 136, 0.3)" stroke-width="1.5"></path><circle r="5" cx="-55.56" cy="375.97" fill="rgba(0, 150, 136, 0.3)"></circle><circle r="5" cx="-89.82" cy="522.6" fill="rgba(0, 150, 136, 0.3)"></circle><circle r="5" cx="-60.22" cy="650.59" fill="rgba(0, 150, 136, 0.3)"></circle><circle r="5" cx="86.67" cy="368.34" fill="rgba(0, 150, 136, 0.3)"></circle><circle r="5" cx="85.19" cy="498.38" fill="rgba(0, 150, 136, 0.3)"></circle><circle r="5" cx="71.4" cy="689.52" fill="rgba(0, 150, 136, 0.3)"></circle><circle r="5" cx="192.31" cy="342.74" fill="rgba(0, 150, 136, 0.3)"></circle><circle r="5" cx="214.56" cy="531.9" fill="rgba(0, 150, 136, 0.3)"></circle><circle r="5" cx="347" cy="354.69" fill="rgba(0, 150, 136, 0.3)"></circle><circle r="5" cx="398.13" cy="528.88" fill="rgba(0, 150, 136, 0.3)"></circle><circle r="5" cx="352.11" cy="653.76" fill="rgba(0, 150, 136, 0.3)"></circle><circle r="5" cx="509.39" cy="381.37" fill="rgba(0, 150, 136, 0.3)"></circle><circle r="5" cx="503.86" cy="518.85" fill="rgba(0, 150, 136, 0.3)"></circle><circle r="5" cx="541.06" cy="678.3" fill="rgba(0, 150, 136, 0.3)"></circle><circle r="5" cx="654.84" cy="396.06" fill="rgba(0, 150, 136, 0.3)"></circle><circle r="5" cx="669.21" cy="548.62" fill="rgba(0, 150, 136, 0.3)"></circle><circle r="5" cx="671.62" cy="649.67" fill="rgba(0, 150, 136, 0.3)"></circle><circle r="5" cx="797.25" cy="224.84" fill="rgba(0, 150, 136, 0.3)"></circle><circle r="5" cx="819.16" cy="557.78" fill="rgba(0, 150, 136, 0.3)"></circle><circle r="5" cx="847.95" cy="703.76" fill="rgba(0, 150, 136, 0.3)"></circle><circle r="5" cx="1011.01" cy="-65.92" fill="rgba(0, 150, 136, 0.3)"></circle><circle r="5" cx="1003.52" cy="42.09" fill="rgba(0, 150, 136, 0.3)"></circle><circle r="5" cx="990.57" cy="200.2" fill="rgba(0, 150, 136, 0.3)"></circle><circle r="5" cx="960.53" cy="402.79" fill="rgba(0, 150, 136, 0.3)"></circle><circle r="5" cx="954.62" cy="521.58" fill="rgba(0, 150, 136, 0.3)"></circle><circle r="5" cx="968.99" cy="683.1" fill="rgba(0, 150, 136, 0.3)"></circle><circle r="5" cx="1131.14" cy="-55.07" fill="rgba(0, 150, 136, 0.3)"></circle><circle r="5" cx="1088.12" cy="37.59" fill="rgba(0, 150, 136, 0.3)"></circle><circle r="5" cx="1135.66" cy="229.88" fill="rgba(0, 150, 136, 0.3)"></circle><circle r="5" cx="1110.9" cy="352.47" fill="rgba(0, 150, 136, 0.3)"></circle><circle r="5" cx="1138.72" cy="560.21" fill="rgba(0, 150, 136, 0.3)"></circle><circle r="5" cx="1123" cy="688.29" fill="rgba(0, 150, 136, 0.3)"></circle><circle r="5" cx="1237.89" cy="81" fill="rgba(0, 150, 136, 0.3)"></circle><circle r="5" cx="1270.58" cy="192.86" fill="rgba(0, 150, 136, 0.3)"></circle><circle r="5" cx="1256.74" cy="363.01" fill="rgba(0, 150, 136, 0.3)"></circle><circle r="5" cx="1250.03" cy="537.88" fill="rgba(0, 150, 136, 0.3)"></circle><circle r="5" cx="1273.75" cy="677.9" fill="rgba(0, 150, 136, 0.3)"></circle><circle r="5" cx="1394.87" cy="-73.63" fill="rgba(0, 150, 136, 0.3)"></circle><circle r="5" cx="1412.23" cy="62.49" fill="rgba(0, 150, 136, 0.3)"></circle><circle r="5" cx="1454.6" cy="188.08" fill="rgba(0, 150, 136, 0.3)"></circle><circle r="5" cx="1450.89" cy="356.36" fill="rgba(0, 150, 136, 0.3)"></circle><circle r="5" cx="1418.14" cy="490.55" fill="rgba(0, 150, 136, 0.3)"></circle><circle r="5" cx="1426.05" cy="652.62" fill="rgba(0, 150, 136, 0.3)"></circle><circle r="5" cx="1587.47" cy="-59.28" fill="rgba(0, 150, 136, 0.3)"></circle><circle r="5" cx="1576.54" cy="45.18" fill="rgba(0, 150, 136, 0.3)"></circle><circle r="5" cx="1549.53" cy="259.46" fill="rgba(0, 150, 136, 0.3)"></circle><circle r="5" cx="1541.88" cy="410.31" fill="rgba(0, 150, 136, 0.3)"></circle><circle r="5" cx="1610.09" cy="491.43" fill="rgba(0, 150, 136, 0.3)"></circle><circle r="5" cx="1563.31" cy="703.66" fill="rgba(0, 150, 136, 0.3)"></circle><path d="M-51.86 661.21L-51.86 661.21" stroke="rgba(0, 150, 136, 0.5)" stroke-width="1.5"></path><path d="M-51.86 661.21L66.35 670.19" stroke="rgba(0, 150, 136, 0.5)" stroke-width="1.5"></path><path d="M248.08 535.52L248.08 535.52" stroke="rgba(0, 150, 136, 0.5)" stroke-width="1.5"></path><path d="M248.08 535.52L356.53 492.8" stroke="rgba(0, 150, 136, 0.5)" stroke-width="1.5"></path><path d="M248.08 535.52L96.82 562.22" stroke="rgba(0, 150, 136, 0.5)" stroke-width="1.5"></path><path d="M248.08 535.52L206.06 690.13" stroke="rgba(0, 150, 136, 0.5)" stroke-width="1.5"></path><path d="M817.3 510.71L817.3 510.71" stroke="rgba(0, 150, 136, 0.5)" stroke-width="1.5"></path><path d="M817.3 510.71L852.08 397.99" stroke="rgba(0, 150, 136, 0.5)" stroke-width="1.5"></path><path d="M817.3 510.71L700.41 559.43" stroke="rgba(0, 150, 136, 0.5)" stroke-width="1.5"></path><path d="M817.3 510.71L965.55 533.17" stroke="rgba(0, 150, 136, 0.5)" stroke-width="1.5"></path><path d="M817.3 510.71L799.99 660.36" stroke="rgba(0, 150, 136, 0.5)" stroke-width="1.5"></path><path d="M817.3 510.71L704.78 648.7" stroke="rgba(0, 150, 136, 0.5)" stroke-width="1.5"></path><path d="M1396.84 -88.8L1396.84 -88.8" stroke="rgba(0, 150, 136, 0.5)" stroke-width="1.5"></path><path d="M1396.84 -88.8L1245.16 -70.03" stroke="rgba(0, 150, 136, 0.5)" stroke-width="1.5"></path><path d="M1396.84 -88.8L1401.07 64.47" stroke="rgba(0, 150, 136, 0.5)" stroke-width="1.5"></path><path d="M1396.84 -88.8L1560.72 -41.49" stroke="rgba(0, 150, 136, 0.5)" stroke-width="1.5"></path><path d="M1396.84 -88.8L1297.96 99.66" stroke="rgba(0, 150, 136, 0.5)" stroke-width="1.5"></path><path d="M1396.84 -88.8L1425.28 202.16" stroke="rgba(0, 150, 136, 0.5)" stroke-width="1.5"></path><path d="M1396.84 -88.8L1547.06 241.78" stroke="rgba(0, 150, 136, 0.5)" stroke-width="1.5"></path><path d="M1401.07 64.47L1401.07 64.47" stroke="rgba(0, 150, 136, 0.5)" stroke-width="1.5"></path><path d="M1401.07 64.47L1297.96 99.66" stroke="rgba(0, 150, 136, 0.5)" stroke-width="1.5"></path><path d="M1401.07 64.47L1425.28 202.16" stroke="rgba(0, 150, 136, 0.5)" stroke-width="1.5"></path><path d="M1425.28 202.16L1425.28 202.16" stroke="rgba(0, 150, 136, 0.5)" stroke-width="1.5"></path><path d="M1425.28 202.16L1547.06 241.78" stroke="rgba(0, 150, 136, 0.5)" stroke-width="1.5"></path><path d="M1425.28 202.16L1297.96 99.66" stroke="rgba(0, 150, 136, 0.5)" stroke-width="1.5"></path><path d="M1425.28 202.16L1264.43 254.66" stroke="rgba(0, 150, 136, 0.5)" stroke-width="1.5"></path><path d="M1425.28 202.16L1277.9 365.17" stroke="rgba(0, 150, 136, 0.5)" stroke-width="1.5"></path><path d="M1425.28 202.16L1549.95 393" stroke="rgba(0, 150, 136, 0.5)" stroke-width="1.5"></path><path d="M1455.02 700.34L1455.02 700.34" stroke="rgba(0, 150, 136, 0.5)" stroke-width="1.5"></path><path d="M1455.02 700.34L1600.36 647.21" stroke="rgba(0, 150, 136, 0.5)" stroke-width="1.5"></path><path d="M1455.02 700.34L1401.42 530.07" stroke="rgba(0, 150, 136, 0.5)" stroke-width="1.5"></path><path d="M1455.02 700.34L1254.36 678.43" stroke="rgba(0, 150, 136, 0.5)" stroke-width="1.5"></path><path d="M1455.02 700.34L1602.43 499.79" stroke="rgba(0, 150, 136, 0.5)" stroke-width="1.5"></path><path d="M1455.02 700.34L1238.1 546.68" stroke="rgba(0, 150, 136, 0.5)" stroke-width="1.5"></path><path d="M1547.06 241.78L1547.06 241.78" stroke="rgba(0, 150, 136, 0.5)" stroke-width="1.5"></path><path d="M1547.06 241.78L1549.95 393" stroke="rgba(0, 150, 136, 0.5)" stroke-width="1.5"></path><path d="M1547.06 241.78L1401.07 64.47" stroke="rgba(0, 150, 136, 0.5)" stroke-width="1.5"></path><path d="M-50.95 498.74L-50.95 498.74" stroke="rgba(0, 150, 136, 0.5)" stroke-width="1.5"></path><path d="M-50.95 498.74L96.82 562.22" stroke="rgba(0, 150, 136, 0.5)" stroke-width="1.5"></path><path d="M-50.95 498.74L-51.86 661.21" stroke="rgba(0, 150, 136, 0.5)" stroke-width="1.5"></path><path d="M-50.95 498.74L66.35 670.19" stroke="rgba(0, 150, 136, 0.5)" stroke-width="1.5"></path><path d="M-50.95 498.74L248.08 535.52" stroke="rgba(0, 150, 136, 0.5)" stroke-width="1.5"></path><path d="M-50.95 498.74L206.06 690.13" stroke="rgba(0, 150, 136, 0.5)" stroke-width="1.5"></path><path d="M-50.95 498.74L356.53 492.8" stroke="rgba(0, 150, 136, 0.5)" stroke-width="1.5"></path><path d="M96.82 562.22L96.82 562.22" stroke="rgba(0, 150, 136, 0.5)" stroke-width="1.5"></path><path d="M96.82 562.22L66.35 670.19" stroke="rgba(0, 150, 136, 0.5)" stroke-width="1.5"></path><path d="M96.82 562.22L206.06 690.13" stroke="rgba(0, 150, 136, 0.5)" stroke-width="1.5"></path><path d="M96.82 562.22L-51.86 661.21" stroke="rgba(0, 150, 136, 0.5)" stroke-width="1.5"></path><path d="M96.82 562.22L356.53 492.8" stroke="rgba(0, 150, 136, 0.5)" stroke-width="1.5"></path><path d="M66.35 670.19L66.35 670.19" stroke="rgba(0, 150, 136, 0.5)" stroke-width="1.5"></path><path d="M206.06 690.13L206.06 690.13" stroke="rgba(0, 150, 136, 0.5)" stroke-width="1.5"></path><path d="M206.06 690.13L346.1 706.84" stroke="rgba(0, 150, 136, 0.5)" stroke-width="1.5"></path><path d="M206.06 690.13L66.35 670.19" stroke="rgba(0, 150, 136, 0.5)" stroke-width="1.5"></path><path d="M206.06 690.13L356.53 492.8" stroke="rgba(0, 150, 136, 0.5)" stroke-width="1.5"></path><path d="M356.53 492.8L356.53 492.8" stroke="rgba(0, 150, 136, 0.5)" stroke-width="1.5"></path><path d="M356.53 492.8L503.57 538.53" stroke="rgba(0, 150, 136, 0.5)" stroke-width="1.5"></path><path d="M356.53 492.8L346.1 706.84" stroke="rgba(0, 150, 136, 0.5)" stroke-width="1.5"></path><path d="M356.53 492.8L548.17 650.42" stroke="rgba(0, 150, 136, 0.5)" stroke-width="1.5"></path><path d="M346.1 706.84L346.1 706.84" stroke="rgba(0, 150, 136, 0.5)" stroke-width="1.5"></path><path d="M346.1 706.84L248.08 535.52" stroke="rgba(0, 150, 136, 0.5)" stroke-width="1.5"></path><path d="M346.1 706.84L548.17 650.42" stroke="rgba(0, 150, 136, 0.5)" stroke-width="1.5"></path><path d="M503.57 538.53L503.57 538.53" stroke="rgba(0, 150, 136, 0.5)" stroke-width="1.5"></path><path d="M503.57 538.53L548.17 650.42" stroke="rgba(0, 150, 136, 0.5)" stroke-width="1.5"></path><path d="M503.57 538.53L700.41 559.43" stroke="rgba(0, 150, 136, 0.5)" stroke-width="1.5"></path><path d="M503.57 538.53L704.78 648.7" stroke="rgba(0, 150, 136, 0.5)" stroke-width="1.5"></path><path d="M503.57 538.53L346.1 706.84" stroke="rgba(0, 150, 136, 0.5)" stroke-width="1.5"></path><path d="M548.17 650.42L548.17 650.42" stroke="rgba(0, 150, 136, 0.5)" stroke-width="1.5"></path><path d="M548.17 650.42L704.78 648.7" stroke="rgba(0, 150, 136, 0.5)" stroke-width="1.5"></path><path d="M548.17 650.42L700.41 559.43" stroke="rgba(0, 150, 136, 0.5)" stroke-width="1.5"></path><path d="M700.41 559.43L700.41 559.43" stroke="rgba(0, 150, 136, 0.5)" stroke-width="1.5"></path><path d="M700.41 559.43L704.78 648.7" stroke="rgba(0, 150, 136, 0.5)" stroke-width="1.5"></path><path d="M700.41 559.43L799.99 660.36" stroke="rgba(0, 150, 136, 0.5)" stroke-width="1.5"></path><path d="M704.78 648.7L704.78 648.7" stroke="rgba(0, 150, 136, 0.5)" stroke-width="1.5"></path><path d="M704.78 648.7L799.99 660.36" stroke="rgba(0, 150, 136, 0.5)" stroke-width="1.5"></path><path d="M852.08 397.99L852.08 397.99" stroke="rgba(0, 150, 136, 0.5)" stroke-width="1.5"></path><path d="M852.08 397.99L986.52 340.29" stroke="rgba(0, 150, 136, 0.5)" stroke-width="1.5"></path><path d="M852.08 397.99L965.55 533.17" stroke="rgba(0, 150, 136, 0.5)" stroke-width="1.5"></path><path d="M852.08 397.99L700.41 559.43" stroke="rgba(0, 150, 136, 0.5)" stroke-width="1.5"></path><path d="M852.08 397.99L799.99 660.36" stroke="rgba(0, 150, 136, 0.5)" stroke-width="1.5"></path><path d="M799.99 660.36L799.99 660.36" stroke="rgba(0, 150, 136, 0.5)" stroke-width="1.5"></path><path d="M799.99 660.36L981.37 653.91" stroke="rgba(0, 150, 136, 0.5)" stroke-width="1.5"></path><path d="M799.99 660.36L965.55 533.17" stroke="rgba(0, 150, 136, 0.5)" stroke-width="1.5"></path><path d="M986.52 340.29L986.52 340.29" stroke="rgba(0, 150, 136, 0.5)" stroke-width="1.5"></path><path d="M986.52 340.29L1140.99 259.81" stroke="rgba(0, 150, 136, 0.5)" stroke-width="1.5"></path><path d="M986.52 340.29L965.55 533.17" stroke="rgba(0, 150, 136, 0.5)" stroke-width="1.5"></path><path d="M986.52 340.29L1120.02 506.15" stroke="rgba(0, 150, 136, 0.5)" stroke-width="1.5"></path><path d="M965.55 533.17L965.55 533.17" stroke="rgba(0, 150, 136, 0.5)" stroke-width="1.5"></path><path d="M965.55 533.17L981.37 653.91" stroke="rgba(0, 150, 136, 0.5)" stroke-width="1.5"></path><path d="M965.55 533.17L1120.02 506.15" stroke="rgba(0, 150, 136, 0.5)" stroke-width="1.5"></path><path d="M981.37 653.91L981.37 653.91" stroke="rgba(0, 150, 136, 0.5)" stroke-width="1.5"></path><path d="M981.37 653.91L1109.73 649.06" stroke="rgba(0, 150, 136, 0.5)" stroke-width="1.5"></path><path d="M1140.99 259.81L1140.99 259.81" stroke="rgba(0, 150, 136, 0.5)" stroke-width="1.5"></path><path d="M1140.99 259.81L1264.43 254.66" stroke="rgba(0, 150, 136, 0.5)" stroke-width="1.5"></path><path d="M1120.02 506.15L1120.02 506.15" stroke="rgba(0, 150, 136, 0.5)" stroke-width="1.5"></path><path d="M1120.02 506.15L1238.1 546.68" stroke="rgba(0, 150, 136, 0.5)" stroke-width="1.5"></path><path d="M1120.02 506.15L1109.73 649.06" stroke="rgba(0, 150, 136, 0.5)" stroke-width="1.5"></path><path d="M1109.73 649.06L1109.73 649.06" stroke="rgba(0, 150, 136, 0.5)" stroke-width="1.5"></path><path d="M1109.73 649.06L1254.36 678.43" stroke="rgba(0, 150, 136, 0.5)" stroke-width="1.5"></path><path d="M1109.73 649.06L1238.1 546.68" stroke="rgba(0, 150, 136, 0.5)" stroke-width="1.5"></path><path d="M1109.73 649.06L965.55 533.17" stroke="rgba(0, 150, 136, 0.5)" stroke-width="1.5"></path><path d="M1245.16 -70.03L1245.16 -70.03" stroke="rgba(0, 150, 136, 0.5)" stroke-width="1.5"></path><path d="M1245.16 -70.03L1297.96 99.66" stroke="rgba(0, 150, 136, 0.5)" stroke-width="1.5"></path><path d="M1245.16 -70.03L1401.07 64.47" stroke="rgba(0, 150, 136, 0.5)" stroke-width="1.5"></path><path d="M1245.16 -70.03L1560.72 -41.49" stroke="rgba(0, 150, 136, 0.5)" stroke-width="1.5"></path><path d="M1245.16 -70.03L1264.43 254.66" stroke="rgba(0, 150, 136, 0.5)" stroke-width="1.5"></path><path d="M1245.16 -70.03L1425.28 202.16" stroke="rgba(0, 150, 136, 0.5)" stroke-width="1.5"></path><path d="M1297.96 99.66L1297.96 99.66" stroke="rgba(0, 150, 136, 0.5)" stroke-width="1.5"></path><path d="M1297.96 99.66L1264.43 254.66" stroke="rgba(0, 150, 136, 0.5)" stroke-width="1.5"></path><path d="M1264.43 254.66L1264.43 254.66" stroke="rgba(0, 150, 136, 0.5)" stroke-width="1.5"></path><path d="M1264.43 254.66L1277.9 365.17" stroke="rgba(0, 150, 136, 0.5)" stroke-width="1.5"></path><path d="M1277.9 365.17L1277.9 365.17" stroke="rgba(0, 150, 136, 0.5)" stroke-width="1.5"></path><path d="M1277.9 365.17L1140.99 259.81" stroke="rgba(0, 150, 136, 0.5)" stroke-width="1.5"></path><path d="M1277.9 365.17L1238.1 546.68" stroke="rgba(0, 150, 136, 0.5)" stroke-width="1.5"></path><path d="M1238.1 546.68L1238.1 546.68" stroke="rgba(0, 150, 136, 0.5)" stroke-width="1.5"></path><path d="M1238.1 546.68L1254.36 678.43" stroke="rgba(0, 150, 136, 0.5)" stroke-width="1.5"></path><path d="M1238.1 546.68L1401.42 530.07" stroke="rgba(0, 150, 136, 0.5)" stroke-width="1.5"></path><path d="M1254.36 678.43L1254.36 678.43" stroke="rgba(0, 150, 136, 0.5)" stroke-width="1.5"></path><path d="M1401.42 530.07L1401.42 530.07" stroke="rgba(0, 150, 136, 0.5)" stroke-width="1.5"></path><path d="M1401.42 530.07L1549.95 393" stroke="rgba(0, 150, 136, 0.5)" stroke-width="1.5"></path><path d="M1401.42 530.07L1602.43 499.79" stroke="rgba(0, 150, 136, 0.5)" stroke-width="1.5"></path><path d="M1401.42 530.07L1277.9 365.17" stroke="rgba(0, 150, 136, 0.5)" stroke-width="1.5"></path><path d="M1401.42 530.07L1254.36 678.43" stroke="rgba(0, 150, 136, 0.5)" stroke-width="1.5"></path><path d="M1560.72 -41.49L1560.72 -41.49" stroke="rgba(0, 150, 136, 0.5)" stroke-width="1.5"></path><path d="M1560.72 -41.49L1401.07 64.47" stroke="rgba(0, 150, 136, 0.5)" stroke-width="1.5"></path><path d="M1560.72 -41.49L1425.28 202.16" stroke="rgba(0, 150, 136, 0.5)" stroke-width="1.5"></path><path d="M1560.72 -41.49L1547.06 241.78" stroke="rgba(0, 150, 136, 0.5)" stroke-width="1.5"></path><path d="M1560.72 -41.49L1297.96 99.66" stroke="rgba(0, 150, 136, 0.5)" stroke-width="1.5"></path><path d="M1549.95 393L1549.95 393" stroke="rgba(0, 150, 136, 0.5)" stroke-width="1.5"></path><path d="M1549.95 393L1602.43 499.79" stroke="rgba(0, 150, 136, 0.5)" stroke-width="1.5"></path><path d="M1602.43 499.79L1602.43 499.79" stroke="rgba(0, 150, 136, 0.5)" stroke-width="1.5"></path><path d="M1602.43 499.79L1600.36 647.21" stroke="rgba(0, 150, 136, 0.5)" stroke-width="1.5"></path><path d="M1600.36 647.21L1600.36 647.21" stroke="rgba(0, 150, 136, 0.5)" stroke-width="1.5"></path><circle r="25" cx="-51.86" cy="661.21" fill="url(&quot;#SvgjsRadialGradient1007&quot;)"></circle><circle r="25" cx="248.08" cy="535.52" fill="url(&quot;#SvgjsRadialGradient1007&quot;)"></circle><circle r="25" cx="817.3" cy="510.71" fill="url(&quot;#SvgjsRadialGradient1007&quot;)"></circle><circle r="25" cx="1396.84" cy="-88.8" fill="url(&quot;#SvgjsRadialGradient1007&quot;)"></circle><circle r="25" cx="1401.07" cy="64.47" fill="url(&quot;#SvgjsRadialGradient1007&quot;)"></circle><circle r="25" cx="1425.28" cy="202.16" fill="url(&quot;#SvgjsRadialGradient1007&quot;)"></circle><circle r="25" cx="1455.02" cy="700.34" fill="url(&quot;#SvgjsRadialGradient1007&quot;)"></circle><circle r="25" cx="1547.06" cy="241.78" fill="url(&quot;#SvgjsRadialGradient1007&quot;)"></circle><circle r="5" cx="-50.95" cy="498.74" fill="#9bd3c8"></circle><circle r="5" cx="96.82" cy="562.22" fill="#9bd3c8"></circle><circle r="5" cx="66.35" cy="670.19" fill="#9bd3c8"></circle><circle r="5" cx="206.06" cy="690.13" fill="#9bd3c8"></circle><circle r="5" cx="356.53" cy="492.8" fill="#9bd3c8"></circle><circle r="5" cx="346.1" cy="706.84" fill="#9bd3c8"></circle><circle r="5" cx="503.57" cy="538.53" fill="#9bd3c8"></circle><circle r="5" cx="548.17" cy="650.42" fill="#9bd3c8"></circle><circle r="5" cx="700.41" cy="559.43" fill="#9bd3c8"></circle><circle r="5" cx="704.78" cy="648.7" fill="#9bd3c8"></circle><circle r="5" cx="852.08" cy="397.99" fill="#9bd3c8"></circle><circle r="5" cx="799.99" cy="660.36" fill="#9bd3c8"></circle><circle r="5" cx="986.52" cy="340.29" fill="#9bd3c8"></circle><circle r="5" cx="965.55" cy="533.17" fill="#9bd3c8"></circle><circle r="5" cx="981.37" cy="653.91" fill="#9bd3c8"></circle><circle r="5" cx="1140.99" cy="259.81" fill="#9bd3c8"></circle><circle r="5" cx="1120.02" cy="506.15" fill="#9bd3c8"></circle><circle r="5" cx="1109.73" cy="649.06" fill="#9bd3c8"></circle><circle r="5" cx="1245.16" cy="-70.03" fill="#9bd3c8"></circle><circle r="5" cx="1297.96" cy="99.66" fill="#9bd3c8"></circle><circle r="5" cx="1264.43" cy="254.66" fill="#9bd3c8"></circle><circle r="5" cx="1277.9" cy="365.17" fill="#9bd3c8"></circle><circle r="5" cx="1238.1" cy="546.68" fill="#9bd3c8"></circle><circle r="5" cx="1254.36" cy="678.43" fill="#9bd3c8"></circle><circle r="5" cx="1401.42" cy="530.07" fill="#9bd3c8"></circle><circle r="5" cx="1560.72" cy="-41.49" fill="#9bd3c8"></circle><circle r="5" cx="1549.95" cy="393" fill="#9bd3c8"></circle><circle r="5" cx="1602.43" cy="499.79" fill="#9bd3c8"></circle><circle r="5" cx="1600.36" cy="647.21" fill="#9bd3c8"></circle></g><defs><mask id="SvgjsMask1006"><rect width="1440" height="560" fill="#ffffff"></rect></mask><radialGradient id="SvgjsRadialGradient1007"><stop stop-color="#ffffff" offset="0.1"></stop><stop stop-color="rgba(55, 166, 144, 1)" offset="0.2"></stop><stop stop-color="rgba(55, 166, 144, 0)" offset="1"></stop></radialGradient></defs></svg>